<?xml version="1.0" standalone="no"?>
<!DOCTYPE svg PUBLIC "-//W3C//DTD SVG 20010904//EN"
 "http://www.w3.org/TR/2001/REC-SVG-20010904/DTD/svg10.dtd">
<svg version="1.0" xmlns="http://www.w3.org/2000/svg"
 width="800.000000pt" height="800.000000pt" viewBox="0 0 800.000000 800.000000"
 preserveAspectRatio="xMidYMid meet">

<g transform="translate(0.000000,800.000000) scale(0.100000,-0.100000)"
fill="#000000" stroke="none">
<path d="M2667 7348 c-122 -245 -123 -492 -3 -655 l44 -60 -31 -49 c-105 -169
-149 -363 -128 -571 13 -123 38 -236 115 -502 67 -233 98 -398 76 -411 -12 -8
-13 -10 -1 -10 12 0 13 -33 8 -207 -4 -115 -12 -276 -18 -360 -6 -84 -9 -257
-6 -385 5 -245 11 -284 67 -430 32 -81 113 -248 121 -248 3 0 10 10 13 23 5
18 11 10 34 -48 38 -95 100 -206 172 -307 l60 -83 2 -245 3 -245 2 204 c3 143
7 209 16 220 7 9 8 12 1 8 -7 -4 -11 2 -11 16 0 21 2 20 34 -12 32 -32 36 -34
48 -18 11 15 14 16 25 2 7 -9 10 -19 6 -22 -4 -4 -11 -1 -16 7 -6 8 -10 10
-10 4 0 -6 7 -17 15 -24 10 -9 15 -9 15 -1 0 6 5 11 11 11 6 0 8 -9 4 -20 -4
-12 -2 -20 5 -20 6 0 8 5 5 10 -13 21 12 8 45 -23 19 -19 45 -39 58 -46 12 -7
20 -16 17 -21 -3 -6 1 -7 9 -4 9 3 16 1 16 -4 0 -6 9 -14 20 -17 11 -4 18 -10
16 -14 -3 -4 0 -8 7 -8 19 -1 100 -50 90 -55 -4 -3 -2 -3 4 -2 7 2 31 -3 54
-11 46 -16 61 -13 52 12 -5 14 3 12 38 -9 86 -49 172 -71 268 -66 75 4 97 9
174 45 48 23 87 38 87 33 0 -5 -7 -13 -16 -18 -11 -6 -7 -9 18 -9 43 0 175 67
255 129 64 49 80 58 67 36 -5 -9 -2 -9 9 1 20 16 23 25 4 15 -9 -6 -9 -4 1 7
9 10 15 10 24 1 7 -7 16 -12 22 -12 5 0 1 7 -10 15 -19 14 -18 15 6 34 13 11
29 17 34 14 5 -3 6 -1 2 5 -4 7 2 22 13 34 l21 22 0 -22 c0 -47 33 -16 143
135 76 104 155 246 188 337 16 44 19 48 25 29 3 -13 10 -23 13 -23 12 0 109
211 141 306 47 143 60 257 63 546 1 141 -1 254 -5 251 -11 -6 -9 129 2 252 9
95 19 146 110 505 124 493 150 826 84 1085 -36 139 -131 293 -223 360 -31 23
-46 45 -66 96 -97 251 -318 372 -650 355 l-120 -6 -80 36 c-168 76 -180 78
-395 78 -177 0 -216 -3 -425 -37 -367 -60 -534 -64 -656 -18 -60 23 -139 93
-159 142 -7 16 -16 29 -20 29 -4 0 -28 -42 -53 -92z m758 -1298 c50 -5 149
-23 220 -40 349 -82 419 -86 568 -37 168 57 412 86 556 68 101 -13 203 -40
195 -52 -3 -5 2 -6 10 -3 24 9 95 -37 154 -100 131 -138 176 -352 152 -716
-21 -317 -90 -871 -115 -924 -31 -65 -108 -116 -206 -136 -72 -14 -159 4 -263
55 -39 20 -89 38 -111 41 -50 8 -147 34 -160 44 -5 4 -46 20 -90 34 -95 32
-190 36 -266 11 -48 -16 -54 -16 -112 0 -105 30 -216 17 -326 -36 -22 -10 -82
-29 -133 -40 -51 -12 -130 -39 -176 -60 -149 -69 -249 -72 -359 -9 -65 37 -99
82 -113 146 -16 78 -30 395 -24 559 17 523 82 891 184 1043 44 64 124 124 169
126 16 1 27 4 25 8 -4 7 24 13 91 21 17 2 32 5 35 5 3 1 46 -3 95 -8z m810
-1989 c170 -13 259 -41 382 -123 95 -64 95 -80 3 -170 -332 -321 -710 -363
-1070 -116 -72 49 -180 150 -199 185 -18 35 7 80 42 74 5 -1 6 3 3 7 -10 16
180 111 256 128 89 20 403 28 583 15z"/>
<path d="M3395 5464 c-152 -10 -268 -25 -293 -39 -47 -25 -76 -58 -118 -130
-70 -122 -69 -143 5 -90 66 48 111 66 134 53 10 -5 26 -7 35 -5 12 3 11 5 -5
6 -32 1 -29 17 5 26 15 4 145 9 290 12 215 4 262 3 262 -9 0 -10 3 -10 11 2 8
11 12 12 16 3 12 -30 19 -8 21 65 1 42 -2 83 -7 91 -7 12 -41 15 -153 17 -79
1 -170 0 -203 -2z"/>
<path d="M4292 5454 c-19 -13 -22 -24 -22 -80 0 -43 4 -66 13 -69 6 -3 136 -6
287 -8 281 -4 303 -7 402 -49 42 -18 56 -38 27 -38 -6 0 -7 5 -3 12 4 7 3 8
-5 4 -6 -4 -19 -2 -28 6 -12 9 -15 9 -9 1 10 -17 -4 -16 -49 3 -20 8 -40 13
-43 10 -3 -3 1 -6 8 -6 9 0 10 -3 4 -9 -5 -6 -36 -5 -82 2 -40 7 -71 15 -68
17 2 3 -17 4 -42 3 -30 -2 -40 0 -29 5 10 4 -89 8 -220 7 -310 0 -315 -3 -296
-160 5 -41 5 -75 1 -75 -5 0 -21 6 -36 14 -57 29 -97 30 -152 2 l-52 -26 7 52
c21 154 7 183 -98 192 -98 9 -306 12 -294 4 7 -4 -10 -8 -38 -8 -27 0 -95 -7
-150 -15 -222 -33 -357 -82 -378 -138 -4 -11 -12 -15 -18 -11 -7 4 -9 3 -5 -4
3 -6 -3 -29 -15 -51 -68 -132 -77 -372 -17 -501 12 -25 20 -49 19 -53 -1 -5 3
-6 9 -2 5 3 10 1 10 -5 0 -38 223 -62 382 -41 180 24 302 67 371 130 24 23 48
37 52 33 5 -4 5 -1 1 5 -4 7 5 32 21 55 30 44 76 144 108 233 34 94 115 140
200 115 49 -15 119 -84 112 -111 -3 -11 -2 -17 2 -14 5 2 14 -15 20 -38 7 -23
34 -82 59 -131 57 -109 133 -184 219 -216 142 -53 356 -81 516 -65 67 6 83 11
112 37 52 45 77 122 83 254 8 186 -24 302 -107 396 -35 39 -54 51 -114 70 -40
12 -76 26 -82 31 -6 6 -1 7 15 2 14 -4 38 -8 55 -10 16 -2 31 -8 33 -14 2 -7
11 -6 25 4 19 14 23 13 49 -12 55 -53 46 -1 -20 112 -74 127 -100 138 -367
155 -237 15 -356 13 -383 -6z m-467 -274 c15 -16 17 -31 12 -83 -13 -134 -105
-396 -131 -370 -4 4 -4 0 0 -10 4 -12 -11 -34 -52 -77 -50 -52 -70 -64 -134
-86 -41 -14 -96 -26 -122 -27 -25 -1 -42 -5 -36 -8 14 -9 -100 -19 -210 -19
-77 0 -99 3 -115 18 -12 9 -17 11 -12 3 5 -9 3 -12 -6 -9 -8 3 -13 14 -11 24
2 15 1 16 -7 4 -8 -12 -13 -11 -30 9 -36 41 -46 90 -46 216 1 118 24 245 46
245 5 0 9 6 9 14 0 22 41 68 56 62 8 -3 13 0 11 6 -3 15 43 39 66 34 9 -2 15
0 12 4 -6 10 57 24 205 44 151 21 170 22 336 24 129 2 142 0 159 -18z m900 -5
c209 -33 289 -64 333 -129 52 -79 81 -242 63 -362 -13 -86 -32 -126 -74 -158
-26 -19 -41 -21 -185 -20 -173 0 -283 20 -387 70 -117 55 -208 218 -259 468
-21 98 -20 112 5 137 21 21 27 22 213 16 105 -4 236 -13 291 -22z"/>
<path d="M3407 5173 c-4 -4 -27 -8 -52 -9 -25 -2 -53 -8 -62 -14 -15 -9 -14
-10 6 -4 13 3 41 7 62 8 22 1 45 8 51 14 7 7 10 12 7 12 -3 0 -9 -3 -12 -7z"/>
<path d="M3213 5143 c9 -2 23 -2 30 0 6 3 -1 5 -18 5 -16 0 -22 -2 -12 -5z"/>
<path d="M3468 5143 c6 -2 18 -2 25 0 6 3 1 5 -13 5 -14 0 -19 -2 -12 -5z"/>
<path d="M3305 5134 c-75 -18 -165 -65 -210 -110 -9 -9 -18 -14 -21 -11 -3 3
17 22 45 43 28 21 48 40 46 42 -9 10 -83 13 -89 4 -3 -5 6 -7 21 -4 20 4 24 2
18 -9 -8 -12 -6 -12 8 0 10 8 20 11 23 9 3 -3 -8 -15 -23 -27 -45 -34 -62 -52
-57 -65 2 -6 -9 -26 -25 -44 -17 -17 -27 -32 -24 -32 3 0 0 -6 -6 -14 -10 -12
-7 -18 13 -31 14 -10 23 -22 19 -28 -3 -5 -2 -7 4 -4 5 3 36 -5 69 -18 83 -33
230 -52 282 -37 52 16 91 48 108 88 24 57 19 71 -23 70 -34 -1 -38 2 -41 26
-2 19 3 30 18 38 17 9 19 14 9 26 -16 20 -7 18 65 -15 40 -18 89 -53 134 -95
38 -37 73 -62 77 -57 3 6 -3 16 -14 23 -20 12 -20 13 2 38 l22 25 -23 -19
c-12 -11 -25 -16 -29 -12 -4 4 -1 12 7 17 13 9 12 10 -2 6 -20 -7 -43 17 -32
35 4 7 3 10 -1 5 -10 -8 -55 30 -55 47 0 6 -36 28 -80 50 -64 31 -93 39 -147
42 -38 1 -77 1 -88 -2z m-35 -104 c-49 -69 -47 -133 7 -186 18 -19 30 -34 26
-34 -52 1 -254 67 -267 89 -15 24 171 142 252 160 2 1 -6 -13 -18 -29z m158
-87 c5 -18 -28 -29 -38 -12 -5 7 -6 17 -3 22 7 12 35 5 41 -10z"/>
<path d="M3560 5099 c0 -5 5 -7 10 -4 6 3 10 8 10 11 0 2 -4 4 -10 4 -5 0 -10
-5 -10 -11z"/>
<path d="M3585 5091 c-3 -5 -2 -12 3 -15 5 -3 9 1 9 9 0 17 -3 19 -12 6z"/>
<path d="M3010 5058 c-12 -22 -12 -22 6 -6 10 10 15 20 12 24 -4 3 -12 -5 -18
-18z"/>
<path d="M3070 5070 c-8 -5 -10 -10 -5 -10 6 0 17 5 25 10 8 5 11 10 5 10 -5
0 -17 -5 -25 -10z"/>
<path d="M3022 5015 c0 -16 2 -22 5 -12 2 9 2 23 0 30 -3 6 -5 -1 -5 -18z"/>
<path d="M3655 5031 c-3 -5 -2 -12 3 -15 5 -3 9 1 9 9 0 17 -3 19 -12 6z"/>
<path d="M2989 4953 c-13 -15 -12 -15 7 -5 12 6 25 8 29 4 5 -4 5 -1 1 6 -10
16 -21 15 -37 -5z"/>
<path d="M4550 5170 c-8 -5 -10 -10 -5 -10 6 0 17 5 25 10 8 5 11 10 5 10 -5
0 -17 -5 -25 -10z"/>
<path d="M4591 5166 c2 -2 20 -6 39 -10 25 -4 31 -3 20 4 -14 9 -69 15 -59 6z"/>
<path d="M4758 5143 c7 -3 16 -2 19 1 4 3 -2 6 -13 5 -11 0 -14 -3 -6 -6z"/>
<path d="M4539 5117 c-79 -33 -146 -85 -183 -141 -14 -23 -20 -26 -27 -15 -7
10 -8 5 -4 -12 5 -19 1 -31 -12 -40 -18 -14 -29 -39 -17 -39 3 0 26 22 50 49
50 56 120 103 184 126 42 15 43 15 27 -3 -29 -32 -49 -92 -41 -126 10 -49 49
-92 100 -112 42 -16 57 -16 140 -6 146 19 253 66 272 120 9 25 8 33 -6 44 -15
11 -16 11 -4 -4 9 -11 10 -18 2 -23 -5 -3 -10 -2 -10 4 0 15 -101 115 -137
136 -24 14 -29 22 -20 28 8 6 7 7 -4 4 -9 -3 -45 3 -79 14 -83 26 -161 24
-231 -4z m327 -110 c50 -26 134 -92 134 -107 0 -12 -87 -46 -177 -69 -102 -26
-112 -26 -78 1 29 22 55 74 55 107 0 17 -5 19 -34 14 -28 -4 -36 -1 -45 16
-10 18 -8 25 13 44 20 19 23 26 13 36 -16 16 53 -9 119 -42z m-158 -64 c5 -17
-26 -29 -40 -15 -6 6 -7 15 -3 22 9 14 37 9 43 -7z"/>
<path d="M4981 5091 c13 -11 26 -17 28 -15 5 5 -30 33 -43 34 -4 0 2 -9 15
-19z"/>
<path d="M4900 5086 c0 -2 7 -7 16 -10 8 -3 12 -2 9 4 -6 10 -25 14 -25 6z"/>
<path d="M4963 5071 c1 -12 7 -17 17 -14 9 3 6 -3 -7 -15 -12 -11 -19 -22 -16
-26 3 -3 13 3 22 13 9 10 23 20 31 24 12 4 12 6 -2 6 -9 1 -23 8 -32 16 -13
14 -15 13 -13 -4z"/>
<path d="M4338 5031 c15 -10 10 -41 -7 -41 -14 0 -14 -2 -1 -10 16 -10 21 -8
24 12 3 21 17 39 26 33 5 -3 11 -2 13 2 3 5 -10 8 -29 9 -19 0 -31 -2 -26 -5z"/>
<path d="M5030 5030 c0 -6 4 -9 9 -5 5 3 12 -5 14 -17 5 -22 5 -21 4 1 -2 24
-27 44 -27 21z"/>
<path d="M4980 5006 c0 -2 7 -9 15 -16 13 -11 14 -10 9 4 -5 14 -24 23 -24 12z"/>
<path d="M5020 5005 c0 -5 5 -17 10 -25 5 -8 10 -10 10 -5 0 6 -5 17 -10 25
-5 8 -10 11 -10 5z"/>
<path d="M4290 4929 c0 -5 5 -7 10 -4 6 3 10 8 10 11 0 2 -4 4 -10 4 -5 0 -10
-5 -10 -11z"/>
<path d="M4440 4616 c0 -2 8 -10 18 -17 15 -13 16 -12 3 4 -13 16 -21 21 -21
13z"/>
<path d="M5043 4555 c0 -8 4 -12 9 -9 5 3 6 10 3 15 -9 13 -12 11 -12 -6z"/>
<path d="M4678 4543 c7 -3 16 -2 19 1 4 3 -2 6 -13 5 -11 0 -14 -3 -6 -6z"/>
<path d="M3338 5283 c7 -3 16 -2 19 1 4 3 -2 6 -13 5 -11 0 -14 -3 -6 -6z"/>
<path d="M3448 5283 c7 -3 16 -2 19 1 4 3 -2 6 -13 5 -11 0 -14 -3 -6 -6z"/>
<path d="M4283 5283 c9 -2 23 -2 30 0 6 3 -1 5 -18 5 -16 0 -22 -2 -12 -5z"/>
<path d="M4840 5270 c8 -5 22 -9 30 -9 10 0 8 3 -5 9 -27 12 -43 12 -25 0z"/>
<path d="M3198 5263 c7 -3 16 -2 19 1 4 3 -2 6 -13 5 -11 0 -14 -3 -6 -6z"/>
<path d="M3290 5260 c-11 -8 -7 -9 15 -4 37 8 45 14 19 14 -10 0 -26 -5 -34
-10z"/>
<path d="M4910 5250 c8 -5 20 -10 25 -10 6 0 3 5 -5 10 -8 5 -19 10 -25 10 -5
0 -3 -5 5 -10z"/>
<path d="M3193 5243 c9 -2 25 -2 35 0 9 3 1 5 -18 5 -19 0 -27 -2 -17 -5z"/>
<path d="M3044 5224 c-10 -8 -13 -12 -5 -8 7 3 17 1 21 -6 5 -9 9 -9 14 -1 4
6 1 11 -6 11 -9 0 -9 3 2 10 8 5 10 10 4 10 -5 0 -19 -7 -30 -16z"/>
<path d="M3128 5233 c6 -2 18 -2 25 0 6 3 1 5 -13 5 -14 0 -19 -2 -12 -5z"/>
<path d="M2980 5190 c-20 -16 -21 -19 -5 -13 18 6 18 5 6 -10 -7 -9 -18 -14
-24 -10 -6 4 -7 1 -3 -6 6 -9 13 -8 27 5 10 9 16 21 12 27 -4 6 0 8 10 4 11
-4 14 -2 10 9 -6 17 -3 18 -33 -6z"/>
<path d="M5027 5197 c-3 -7 3 -13 14 -13 13 0 15 3 7 13 -6 7 -12 13 -13 13
-2 0 -5 -6 -8 -13z"/>
<path d="M5085 4440 c-3 -5 -2 -10 4 -10 5 0 13 5 16 10 3 6 2 10 -4 10 -5 0
-13 -4 -16 -10z"/>
<path d="M3018 4423 c7 -3 16 -2 19 1 4 3 -2 6 -13 5 -11 0 -14 -3 -6 -6z"/>
<path d="M4788 4413 c7 -3 16 -2 19 1 4 3 -2 6 -13 5 -11 0 -14 -3 -6 -6z"/>
<path d="M3805 4390 c-18 -7 -14 -10 25 -29 45 -21 110 -28 110 -13 0 12 -75
52 -96 51 -11 0 -28 -4 -39 -9z"/>
<path d="M4127 4375 c-20 -14 -37 -28 -37 -32 0 -12 103 7 129 24 l26 17 -25
7 c-42 12 -54 10 -93 -16z"/>
<path d="M4290 4015 c0 -5 5 -17 10 -25 5 -8 10 -10 10 -5 0 6 -5 17 -10 25
-5 8 -10 11 -10 5z"/>
<path d="M3827 3978 c-7 -5 -4 -8 9 -8 12 0 33 -9 47 -20 21 -17 26 -17 31 -5
5 13 9 13 39 -1 30 -14 50 -54 26 -54 -5 0 -9 6 -9 13 0 17 -47 40 -55 27 -3
-5 -3 -21 1 -35 6 -23 10 -25 69 -25 60 0 63 1 70 28 10 40 44 72 77 72 15 0
28 5 28 10 0 15 -70 2 -91 -16 -21 -19 -61 -18 -107 2 -39 17 -116 24 -135 12z
m204 -91 c-8 -8 -11 -5 -11 9 0 27 14 41 18 19 2 -9 -1 -22 -7 -28z m-24 11
c-3 -8 -6 -5 -6 6 -1 11 2 17 5 13 3 -3 4 -12 1 -19z"/>
<path d="M4170 3980 c0 -5 10 -10 23 -12 17 -2 22 -10 22 -33 0 -27 -4 -31
-42 -39 -24 -5 -43 -13 -43 -17 0 -11 120 -12 121 -1 0 4 2 26 5 49 6 46 6 47
-53 57 -18 3 -33 1 -33 -4z m67 -62 c-3 -8 -6 -5 -6 6 -1 11 2 17 5 13 3 -3 4
-12 1 -19z"/>
<path d="M3740 3971 c-15 -4 -20 -10 -13 -14 6 -4 24 0 39 8 30 15 18 18 -26
6z"/>
<path d="M4280 3923 c0 -30 4 -43 14 -43 7 0 16 8 19 19 4 15 13 18 58 15 30
-1 63 0 73 3 19 5 19 6 1 19 -24 18 -112 18 -129 1 -7 -7 -15 -19 -19 -27 -3
-10 -6 -7 -6 8 -1 12 4 22 9 22 6 0 10 6 10 13 0 8 -7 14 -15 14 -11 0 -15
-12 -15 -44z"/>
<path d="M3619 3937 c-9 -7 -21 -22 -28 -34 -10 -20 -9 -23 5 -23 9 0 22 7 29
16 17 24 78 24 90 0 16 -31 45 -29 52 5 3 16 10 29 15 29 5 0 6 -5 2 -12 -5
-8 -2 -9 9 -5 22 8 67 -12 67 -30 0 -7 9 -13 21 -13 15 0 19 4 15 16 -3 9 -6
21 -6 26 0 6 -3 8 -7 5 -3 -4 -12 2 -20 13 -16 23 -53 26 -102 9 -24 -9 -35
-9 -44 0 -15 15 -78 14 -98 -2z m56 -7 c-27 -12 -43 -12 -25 0 8 5 22 9 30 9
10 0 8 -3 -5 -9z m80 -32 c6 -4 2 -8 -7 -8 -10 0 -18 7 -18 17 0 9 3 12 8 7 4
-5 12 -12 17 -16z"/>
<path d="M4101 3925 c-12 -14 -19 -30 -16 -35 3 -4 -1 -11 -7 -13 -7 -3 -3 -6
8 -6 14 -1 24 7 27 19 3 13 14 20 30 20 37 0 56 10 50 26 -9 24 -67 17 -92
-11z m59 11 c0 -2 -7 -7 -16 -10 -8 -3 -12 -2 -9 4 6 10 25 14 25 6z"/>
<path d="M4483 3924 c2 -11 -1 -22 -7 -23 -6 -1 -42 -5 -81 -10 l-70 -8 70 0
c39 -1 80 2 92 5 20 7 21 9 7 32 -13 21 -15 22 -11 4z"/>
<path d="M3550 3913 c0 -16 -2 -16 -11 -3 -8 12 -10 12 -7 -4 5 -29 23 -30 36
-1 10 21 9 25 -3 25 -8 0 -15 -8 -15 -17z"/>
<path d="M3470 3913 c0 -4 5 -15 10 -23 8 -13 10 -13 10 2 0 9 -4 20 -10 23
-5 3 -10 3 -10 -2z"/>
<path d="M3500 3907 c0 -9 4 -18 9 -21 5 -4 8 1 7 9 -3 21 -16 31 -16 12z"/>
<path d="M4518 3914 c6 -3 9 -10 6 -16 -4 -6 -1 -9 5 -7 19 7 14 24 -6 26 -10
2 -12 0 -5 -3z"/>
<path d="M3443 3893 c1 -13 4 -23 8 -23 4 0 10 -8 12 -17 4 -15 5 -14 6 3 0
11 -5 29 -13 40 -14 18 -15 18 -13 -3z"/>
<path d="M4569 3908 c-7 -22 -8 -58 -1 -58 11 0 32 46 25 54 -6 6 -22 8 -24 4z"/>
<path d="M3653 3883 c9 -2 23 -2 30 0 6 3 -1 5 -18 5 -16 0 -22 -2 -12 -5z"/>
<path d="M3785 3880 c-4 -6 7 -10 25 -10 18 0 29 4 25 10 -3 6 -15 10 -25 10
-10 0 -22 -4 -25 -10z"/>
<path d="M3490 3836 c0 -15 4 -25 10 -21 6 3 10 1 10 -6 0 -6 8 -18 18 -26 10
-9 11 -11 2 -7 -10 5 -9 0 4 -14 11 -12 21 -22 22 -22 4 0 -2 38 -6 50 -2 3
-2 8 -2 11 1 3 -12 19 -28 34 l-30 29 0 -28z m45 -26 c3 -5 1 -10 -4 -10 -6 0
-11 5 -11 10 0 6 2 10 4 10 3 0 8 -4 11 -10z"/>
<path d="M4507 3832 c-15 -15 -29 -42 -33 -59 -7 -35 -47 -77 -82 -86 -13 -3
-37 -1 -54 4 -36 10 -111 -8 -101 -24 3 -5 -4 -6 -18 -2 -21 7 -22 6 -10 -9
12 -14 11 -16 -10 -18 -13 0 -31 0 -39 1 -8 2 -69 4 -135 6 -83 2 -145 9 -199
24 -43 11 -82 19 -86 16 -5 -3 -14 1 -22 8 -7 7 -29 22 -49 34 l-36 21 0 -24
c0 -24 12 -33 19 -13 5 14 35 1 35 -15 0 -12 -18 -14 -52 -6 -25 6 -24 -2 3
-25 17 -14 36 -25 44 -25 7 0 25 -14 40 -30 18 -21 32 -28 44 -23 11 4 15 3
11 -4 -10 -16 43 -23 89 -13 50 12 54 12 54 1 0 -6 -17 -11 -37 -13 l-38 -4
30 -14 c21 -10 63 -14 135 -14 128 1 170 10 170 34 0 10 6 21 13 23 9 4 8 8
-3 16 -12 9 -10 11 12 11 15 0 29 -4 33 -10 3 -5 13 -7 23 -4 14 5 15 4 2 -5
-11 -8 -12 -11 -2 -11 20 0 44 15 87 54 22 20 45 34 53 31 7 -2 10 0 7 5 -3 6
-2 10 2 10 18 0 78 66 81 88 2 13 11 32 20 43 16 18 17 18 24 2 7 -16 7 -15 6
2 -2 11 1 26 5 33 15 22 -9 12 -36 -16z m-707 -172 c13 -8 13 -10 -2 -10 -9 0
-20 5 -23 10 -8 13 5 13 25 0z m207 -26 c63 1 94 -2 80 -7 -40 -15 -272 6
-262 24 3 4 22 2 43 -5 22 -8 79 -12 139 -12z m-182 -2 c36 -9 37 -10 10 -11
-16 0 -48 6 -70 14 -33 13 -34 15 -10 11 17 -3 48 -9 70 -14z m339 -11 c4 -5
-3 -7 -14 -4 -23 6 -26 13 -6 13 8 0 17 -4 20 -9z m49 2 c-7 -2 -19 -2 -25 0
-7 3 -2 5 12 5 14 0 19 -2 13 -5z m-383 -28 c20 -24 5 -28 -21 -6 -19 16 -20
20 -8 21 9 0 22 -7 29 -15z m47 9 c-3 -3 -12 -4 -19 -1 -8 3 -5 6 6 6 11 1 17
-2 13 -5z m180 0 c-3 -3 -12 -4 -19 -1 -8 3 -5 6 6 6 11 1 17 -2 13 -5z m50
-10 c-3 -3 -12 -4 -19 -1 -8 3 -5 6 6 6 11 1 17 -2 13 -5z m53 -24 c0 -5 -4
-10 -9 -10 -5 0 -23 -3 -40 -6 -19 -4 -31 -2 -31 4 0 9 17 14 68 21 6 0 12 -3
12 -9z"/>
<path d="M4417 3764 c-22 -14 -36 -28 -33 -31 3 -3 14 0 23 8 16 13 17 12 4
-4 -8 -9 -21 -15 -30 -12 -9 2 -22 1 -29 -4 -22 -14 23 -21 49 -7 13 6 31 26
42 44 22 38 23 38 -26 6z"/>
<path d="M3580 3745 c0 -24 5 -35 15 -35 10 0 15 10 15 29 0 16 -6 31 -15 35
-12 4 -15 -3 -15 -29z m17 -7 c-3 -8 -6 -5 -6 6 -1 11 2 17 5 13 3 -3 4 -12 1
-19z"/>
<path d="M4158 3653 c6 -2 18 -2 25 0 6 3 1 5 -13 5 -14 0 -19 -2 -12 -5z"/>
<path d="M4213 3583 c-24 -9 -14 -30 11 -26 16 3 23 10 19 19 -5 15 -10 16
-30 7z"/>
<path d="M2618 5143 c7 -3 16 -2 19 1 4 3 -2 6 -13 5 -11 0 -14 -3 -6 -6z"/>
<path d="M2575 5130 c-3 -6 1 -7 9 -4 18 7 21 14 7 14 -6 0 -13 -4 -16 -10z"/>
<path d="M2665 5130 c27 -12 43 -12 25 0 -8 5 -22 9 -30 9 -10 0 -8 -3 5 -9z"/>
<path d="M5447 5129 c7 -7 15 -10 18 -7 3 3 -2 9 -12 12 -14 6 -15 5 -6 -5z"/>
<path d="M2629 5083 c-12 -16 -12 -17 1 -7 8 7 24 14 35 17 19 4 19 5 -1 6
-12 0 -28 -7 -35 -16z"/>
<path d="M2525 5079 c-4 -6 -5 -12 -2 -15 2 -3 7 2 10 11 7 17 1 20 -8 4z"/>
<path d="M2724 5059 c0 -10 4 -19 8 -19 4 0 8 6 8 14 0 8 -4 17 -8 20 -4 2 -8
-4 -8 -15z"/>
<path d="M5411 5054 c0 -11 3 -14 6 -6 3 7 2 16 -1 19 -3 4 -6 -2 -5 -13z"/>
<path d="M5508 5055 c5 -11 12 -27 15 -35 5 -13 6 -13 6 1 1 8 -6 24 -15 35
-15 19 -15 19 -6 -1z"/>
<path d="M2501 5014 c0 -11 3 -14 6 -6 3 7 2 16 -1 19 -3 4 -6 -2 -5 -13z"/>
<path d="M5531 4984 c0 -11 3 -14 6 -6 3 7 2 16 -1 19 -3 4 -6 -2 -5 -13z"/>
<path d="M2491 4954 c0 -11 3 -14 6 -6 3 7 2 16 -1 19 -3 4 -6 -2 -5 -13z"/>
<path d="M5532 4940 c0 -14 2 -19 5 -12 2 6 2 18 0 25 -3 6 -5 1 -5 -13z"/>
<path d="M2729 4908 c-3 -22 -1 -34 4 -29 5 5 7 21 5 37 -3 27 -4 26 -9 -8z"/>
<path d="M5352 4920 c0 -14 2 -19 5 -12 2 6 2 18 0 25 -3 6 -5 1 -5 -13z"/>
<path d="M2525 4853 c8 -18 18 -33 20 -33 10 0 4 16 -16 40 l-20 25 16 -32z"/>
<path d="M5331 4815 c0 -5 4 -19 8 -29 7 -19 8 -19 13 2 4 12 2 20 -2 17 -5
-3 -11 1 -13 7 -3 7 -5 9 -6 3z"/>
<path d="M5460 4790 c-6 -11 -8 -20 -6 -20 3 0 10 9 16 20 6 11 8 20 6 20 -3
0 -10 -9 -16 -20z"/>
<path d="M2721 4784 c0 -11 3 -14 6 -6 3 7 2 16 -1 19 -3 4 -6 -2 -5 -13z"/>
<path d="M2606 4725 c24 -39 24 -40 24 -28 0 6 -9 21 -21 34 l-20 24 17 -30z"/>
<path d="M5331 4734 c0 -11 3 -14 6 -6 3 7 2 16 -1 19 -3 4 -6 -2 -5 -13z"/>
<path d="M5402 4695 c-17 -37 -14 -45 4 -12 9 16 14 31 11 33 -2 2 -9 -7 -15
-21z"/>
<path d="M2702 4660 c0 -14 2 -19 5 -12 2 6 2 18 0 25 -3 6 -5 1 -5 -13z"/>
<path d="M2654 4520 c0 -52 1 -74 3 -47 2 26 2 68 0 95 -2 26 -3 4 -3 -48z"/>
<path d="M5372 4528 c-1 -47 -5 -95 -8 -105 -5 -17 -5 -17 6 -1 6 11 9 52 7
105 l-3 88 -2 -87z"/>
<path d="M2692 4530 c0 -19 2 -27 5 -17 2 9 2 25 0 35 -3 9 -5 1 -5 -18z"/>
<path d="M5350 4385 c-7 -9 -11 -17 -9 -20 3 -2 10 5 17 15 14 24 10 26 -8 5z"/>
<path d="M4800 2983 c0 -5 4 -13 10 -19 5 -5 11 -100 13 -219 l2 -210 3 213
c2 179 0 216 -13 228 -8 9 -15 12 -15 7z"/>
<path d="M3280 2926 c0 -2 7 -9 15 -16 9 -7 15 -8 15 -2 0 5 -7 12 -15 16 -8
3 -15 4 -15 2z"/>
<path d="M4684 2919 c-5 -9 -2 -10 9 -6 9 3 18 2 21 -4 2 -5 3 -4 2 3 -3 17
-23 21 -32 7z"/>
<path d="M3363 2879 c-2 -23 3 -25 10 -4 4 8 3 16 -1 19 -4 3 -9 -4 -9 -15z"/>
<path d="M3408 2843 c7 -3 16 -2 19 1 4 3 -2 6 -13 5 -11 0 -14 -3 -6 -6z"/>
<path d="M4625 2839 c-4 -6 -5 -12 -2 -15 2 -3 7 2 10 11 7 17 1 20 -8 4z"/>
<path d="M3430 2810 c0 -5 5 -10 11 -10 5 0 7 5 4 10 -3 6 -8 10 -11 10 -2 0
-4 -4 -4 -10z"/>
<path d="M4595 2810 c-3 -5 -1 -10 4 -10 6 0 11 5 11 10 0 6 -2 10 -4 10 -3 0
-8 -4 -11 -10z"/>
<path d="M4512 2780 c-8 -13 -8 -20 -2 -20 6 0 13 7 17 15 9 24 -1 27 -15 5z"/>
<path d="M3534 2745 c-18 -15 -18 -15 0 -8 14 5 17 3 11 -6 -6 -10 -3 -11 14
-2 12 7 27 9 33 5 7 -4 8 -3 4 5 -5 7 -16 9 -28 5 -14 -4 -18 -2 -14 5 10 15
3 14 -20 -4z"/>
<path d="M4462 2751 c-11 -7 -11 -9 0 -14 9 -3 15 1 15 9 0 8 -1 14 -1 14 -1
0 -7 -4 -14 -9z"/>
<path d="M4220 2690 c-9 -6 -10 -10 -3 -10 6 0 15 5 18 10 8 12 4 12 -15 0z"/>
<path d="M3686 2675 c-4 -13 -2 -14 14 -5 23 13 26 20 6 20 -8 0 -16 -7 -20
-15z"/>
<path d="M3740 2670 c-24 -19 -24 -19 -2 -13 12 3 25 10 28 15 11 18 -1 17
-26 -2z"/>
<path d="M4188 2653 c7 -3 16 -2 19 1 4 3 -2 6 -13 5 -11 0 -14 -3 -6 -6z"/>
<path d="M4235 2650 c-3 -5 -1 -10 4 -10 6 0 11 5 11 10 0 6 -2 10 -4 10 -3 0
-8 -4 -11 -10z"/>
<path d="M3036 2524 c-90 -20 -351 -108 -546 -185 -85 -34 -189 -72 -230 -86
-752 -244 -977 -324 -1092 -385 -47 -25 -56 -33 -48 -47 13 -25 252 -254 355
-342 1215 -1023 2927 -1217 4340 -490 363 187 655 396 944 678 l136 133 -25
20 c-89 73 -520 231 -1022 376 -106 30 -139 44 -146 60 -10 21 -104 62 -352
151 -274 100 -496 154 -513 126 -4 -6 -9 -68 -11 -139 -10 -269 -76 -551 -260
-1112 -69 -211 -126 -390 -126 -398 0 -25 -14 -14 -53 39 -20 29 -80 99 -132
157 -52 58 -95 110 -95 115 0 6 39 48 86 95 97 95 144 154 144 181 0 27 -109
159 -249 302 -69 71 -125 131 -123 135 1 3 -4 7 -13 8 -8 1 -13 -2 -9 -7 3 -5
10 -7 15 -4 5 4 -39 -40 -97 -97 -108 -104 -258 -275 -276 -314 -16 -35 14
-82 122 -190 55 -54 100 -103 99 -109 0 -5 -14 -26 -32 -46 -112 -127 -227
-263 -227 -270 0 -21 -18 -7 -24 18 -4 16 -58 186 -121 378 -63 193 -128 397
-144 455 -69 243 -121 548 -121 706 0 116 -6 119 -154 88z"/>
<path d="M4800 2499 c0 -5 5 -7 10 -4 6 3 10 8 10 11 0 2 -4 4 -10 4 -5 0 -10
-5 -10 -11z"/>
<path d="M3212 2410 c14 -22 24 -19 15 5 -4 8 -11 15 -17 15 -6 0 -6 -7 2 -20z"/>
<path d="M4795 2399 c-4 -6 -14 -8 -23 -4 -9 3 -13 3 -9 -1 4 -4 2 -13 -4 -21
-19 -22 0 -14 29 12 15 14 24 25 20 25 -4 0 -10 -5 -13 -11z"/>
<path d="M3259 2383 c-13 -16 -12 -17 4 -4 16 13 21 21 13 21 -2 0 -10 -8 -17
-17z"/>
<path d="M4728 2393 c6 -2 9 -10 6 -15 -4 -7 -2 -8 5 -4 13 9 5 26 -12 25 -9
0 -8 -2 1 -6z"/>
<path d="M3273 2366 c-9 -11 -6 -16 15 -25 22 -9 24 -9 11 1 -9 7 -14 19 -12
26 6 15 1 15 -14 -2z"/>
<path d="M3330 2325 c-11 -13 -10 -14 6 -8 16 6 17 4 6 -9 -10 -13 -9 -18 5
-29 16 -13 17 -12 5 3 -10 12 -10 17 -1 20 9 3 9 9 2 22 -9 16 -11 16 -23 1z"/>
<path d="M4646 2311 c-4 -5 -2 -12 3 -15 5 -4 12 -2 15 3 4 5 2 12 -3 15 -5 4
-12 2 -15 -3z"/>
<path d="M4684 2312 c3 -5 -6 -20 -21 -31 -16 -11 -23 -21 -17 -21 6 0 21 11
33 24 17 18 19 26 10 31 -7 5 -10 4 -5 -3z"/>
<path d="M3390 2290 c0 -5 5 -10 11 -10 5 0 7 5 4 10 -3 6 -8 10 -11 10 -2 0
-4 -4 -4 -10z"/>
<path d="M3385 2250 c10 -11 20 -20 22 -20 2 0 -1 9 -7 20 -6 11 -16 20 -22
20 -6 0 -3 -9 7 -20z"/>
<path d="M4550 2234 c0 -1 8 -8 17 -15 14 -12 16 -12 8 0 -6 11 -4 13 7 9 8
-4 21 -3 28 2 7 5 -2 7 -24 7 -20 -1 -36 -2 -36 -3z"/>
<path d="M3426 2218 c3 -5 10 -6 15 -3 13 9 11 12 -6 12 -8 0 -12 -4 -9 -9z"/>
<path d="M3480 2216 c0 -2 8 -10 18 -17 15 -13 16 -12 3 4 -13 16 -21 21 -21
13z"/>
<path d="M4513 2210 c-13 -5 -23 -14 -23 -19 0 -5 14 -3 30 5 44 23 39 32 -7
14z"/>
<path d="M3472 2184 c10 -10 20 -16 22 -13 3 3 -5 11 -17 18 -21 13 -21 12 -5
-5z"/>
<path d="M4525 2179 c-11 -17 1 -21 15 -4 8 9 8 15 2 15 -6 0 -14 -5 -17 -11z"/>
<path d="M4404 2149 c-3 -6 -1 -16 6 -22 10 -9 11 -9 5 2 -4 8 -2 17 6 22 9 6
10 9 2 9 -6 0 -15 -5 -19 -11z"/>
<path d="M4445 2150 c-3 -6 1 -7 9 -4 18 7 21 14 7 14 -6 0 -13 -4 -16 -10z"/>
<path d="M4455 2125 c-22 -13 -37 -25 -33 -25 9 0 78 41 78 46 0 6 -3 5 -45
-21z"/>
<path d="M3622 2075 c2 -1 12 -7 24 -13 15 -8 21 -8 21 1 0 7 -11 13 -24 13
-14 1 -23 1 -21 -1z"/>
<path d="M4330 2070 c-11 -7 -11 -10 -2 -10 7 0 10 -4 7 -10 -9 -14 7 -12 28
4 16 12 16 14 1 20 -19 7 -16 8 -34 -4z"/>
<path d="M4250 2060 c-8 -5 -10 -10 -5 -10 6 0 17 5 25 10 8 5 11 10 5 10 -5
0 -17 -5 -25 -10z"/>
<path d="M3692 2051 c-11 -7 -10 -9 3 -14 9 -4 14 -3 10 2 -3 5 1 12 7 14 7 3
9 6 3 6 -5 0 -16 -3 -23 -8z"/>
<path d="M4266 2041 c-4 -5 3 -7 14 -4 23 6 26 13 6 13 -8 0 -17 -4 -20 -9z"/>
<path d="M4268 2014 c-38 -20 -36 -28 2 -9 17 9 30 18 30 20 0 7 -1 6 -32 -11z"/>
<path d="M3820 1991 c13 -10 13 -11 0 -11 -13 -1 -13 -2 0 -9 8 -5 26 -11 40
-15 25 -6 25 -6 -1 7 -15 6 -27 16 -27 22 0 5 -6 11 -14 13 -9 2 -8 0 2 -7z"/>
<path d="M4200 1980 c-8 -5 -24 -7 -35 -4 -18 4 -18 4 -3 -6 16 -10 58 1 58
15 0 7 -3 6 -20 -5z"/>
<path d="M4105 1945 c-39 -17 -21 -18 25 0 19 7 28 14 20 14 -8 0 -28 -6 -45
-14z"/>
<path d="M3940 1931 c0 -5 7 -12 16 -15 24 -9 27 -7 10 9 -17 17 -26 19 -26 6z"/>
</g>
</svg>
