<svg viewBox="0 0 1324 1106" fill="none" xmlns="http://www.w3.org/2000/svg">
<path d="M855.17 497.56C834.96 521.5 765.39 549.22 765.39 549.22C760.55 547.81 755.67 546.22 750.87 544.6C730.475 537.386 710.562 528.879 691.25 519.13C691.25 519.13 676.95 508.13 680.25 490.58C680.25 490.58 687.58 468.1 705.17 468.79C722.76 469.48 803.41 458.7 803.41 458.7C803.41 458.7 824.09 434.7 841.73 438.47C859.37 442.24 875.38 473.61 855.17 497.56Z" fill="#F0E3FF"/>
<path d="M744.321 526.236C746.735 520.794 742.623 513.69 735.136 510.369C727.649 507.048 719.623 508.768 717.209 514.21C714.795 519.653 718.907 526.757 726.394 530.078C733.881 533.398 741.907 531.679 744.321 526.236Z" fill="white"/>
<path d="M734 533.76C731.089 533.741 728.215 533.114 725.56 531.92C721.721 530.286 718.492 527.488 716.33 523.92C714.27 520.35 713.92 516.61 715.33 513.38C716.74 510.15 719.77 507.89 723.8 507.03C727.89 506.25 732.122 506.771 735.9 508.52V508.52C744.38 512.28 748.96 520.59 746.1 527.03C744.24 531.36 739.49 533.76 734 533.76ZM727.45 510.68C726.516 510.678 725.584 510.776 724.67 510.97C723.449 511.083 722.281 511.521 721.286 512.236C720.29 512.952 719.504 513.92 719.008 515.041C718.511 516.162 718.323 517.395 718.462 518.613C718.602 519.831 719.063 520.99 719.8 521.97C721.542 524.791 724.122 526.998 727.18 528.28C733.65 531.15 740.51 529.88 742.47 525.45C744.43 521.02 740.77 515.09 734.3 512.22C732.154 511.24 729.829 510.716 727.47 510.68H727.45Z" fill="#262424"/>
<path d="M701.77 495.35C701.24 495.35 700.731 495.139 700.356 494.764C699.981 494.389 699.77 493.88 699.77 493.35C699.77 492.82 699.981 492.311 700.356 491.936C700.731 491.561 701.24 491.35 701.77 491.35C702.45 491.35 769.77 491.08 807.54 476.11C807.785 476.011 808.046 475.962 808.31 475.965C808.574 475.968 808.834 476.023 809.077 476.128C809.319 476.232 809.538 476.383 809.722 476.572C809.906 476.761 810.05 476.985 810.147 477.23C810.244 477.475 810.292 477.737 810.287 478.001C810.282 478.265 810.225 478.525 810.12 478.767C810.014 479.008 809.861 479.227 809.671 479.409C809.481 479.592 809.256 479.735 809.01 479.83C770.54 495.08 704.57 495.35 701.78 495.35H701.77Z" fill="#262424"/>
<path d="M855.17 497.56C834.96 521.5 765.39 549.22 765.39 549.22C760.55 547.81 755.67 546.22 750.87 544.6C782.71 533.96 828.17 502.5 828.17 502.5C795.46 489.76 803.39 458.7 803.39 458.7C803.39 458.7 824.07 434.7 841.71 438.47C859.35 442.24 875.38 473.61 855.17 497.56Z" fill="white"/>
<path d="M765.39 551.23C765.201 551.23 765.012 551.203 764.83 551.15C760.11 549.78 755.19 548.21 750.21 546.5C749.813 546.366 749.469 546.111 749.225 545.771C748.981 545.431 748.849 545.023 748.849 544.605C748.849 544.186 748.981 543.779 749.225 543.439C749.469 543.099 749.813 542.844 750.21 542.71C776.74 533.84 813.34 510.04 823.99 502.91C793.99 488.91 801.34 458.53 801.43 458.21C801.506 457.911 801.649 457.634 801.85 457.4C802.73 456.4 823.51 432.55 842.1 436.52C851.55 438.52 860.27 447.44 864.31 459.22C869.05 473.04 866.31 487.49 856.67 498.86C836.37 522.86 768.96 549.95 766.1 551.09C765.874 551.179 765.633 551.227 765.39 551.23ZM757 544.54C759.82 545.46 762.61 546.32 765.33 547.12C772.33 544.27 835.05 518.36 853.69 496.28C857.9 491.462 860.758 485.614 861.971 479.333C863.185 473.051 862.712 466.559 860.6 460.52C857.06 450.21 849.33 442.14 841.35 440.44C826.18 437.2 807.9 456.75 805.28 459.66C804.44 463.54 800.07 489.4 828.95 500.66C829.289 500.792 829.585 501.013 829.807 501.301C830.029 501.588 830.169 501.931 830.211 502.292C830.253 502.653 830.196 503.018 830.046 503.349C829.896 503.68 829.659 503.964 829.36 504.17C828.88 504.45 788.21 532.47 757 544.54Z" fill="#262424"/>
<path d="M658.43 491.66L690.81 503.48C690.81 503.48 709.09 497.83 703.88 476.66L671.66 459.14L658.43 491.66Z" fill="white"/>
<path d="M690.81 505.48C690.575 505.481 690.341 505.44 690.12 505.36L657.74 493.54C657.488 493.448 657.256 493.306 657.06 493.123C656.863 492.94 656.706 492.719 656.596 492.473C656.487 492.228 656.429 491.963 656.424 491.694C656.42 491.426 656.469 491.159 656.57 490.91L669.8 458.39C669.906 458.129 670.067 457.894 670.27 457.7C670.474 457.505 670.716 457.356 670.981 457.261C671.246 457.167 671.529 457.13 671.809 457.152C672.09 457.174 672.363 457.255 672.61 457.39L704.83 474.91C705.077 475.042 705.294 475.223 705.466 475.444C705.638 475.664 705.762 475.919 705.83 476.19C711.44 498.93 691.62 505.34 691.41 505.4C691.215 505.457 691.013 505.484 690.81 505.48V505.48ZM661.06 490.48L690.82 501.35C693.73 500.22 705.75 494.48 702.13 477.98L672.67 461.98L661.06 490.48Z" fill="#262424"/>
<path d="M685.14 441.33C685.14 441.33 682.48 481.99 651.14 502.66L505.81 432.66C505.81 432.66 345.81 501.33 291.14 523.99C236.47 546.65 95.14 469.99 201.14 411.99C201.14 411.99 396.14 353.48 479.07 331.17C498.99 325.8 512.43 322.53 515.14 322.66C518.67 322.83 531.24 330.47 548.07 341.8C597.92 375.36 685.14 441.33 685.14 441.33Z" fill="#F0E3FF"/>
<path d="M548.07 341.8C540.59 347.25 529.95 350.66 518.14 350.66C499.85 350.66 484.35 342.47 479.07 331.17C498.99 325.8 512.43 322.53 515.14 322.66C518.67 322.83 531.24 330.47 548.07 341.8Z" fill="white"/>
<path d="M653.15 466.63C652.801 466.635 652.456 466.549 652.15 466.38L510.94 388.17L280.25 464.17C279.746 464.336 279.197 464.295 278.723 464.055C278.25 463.816 277.891 463.399 277.725 462.895C277.559 462.391 277.6 461.842 277.84 461.368C278.079 460.895 278.496 460.536 279 460.37L510.52 384.1C510.781 384.014 511.057 383.984 511.331 384.009C511.604 384.035 511.87 384.117 512.11 384.25L654.11 462.89C654.492 463.107 654.793 463.443 654.965 463.848C655.137 464.252 655.171 464.702 655.061 465.127C654.952 465.553 654.706 465.931 654.36 466.203C654.015 466.474 653.589 466.624 653.15 466.63Z" fill="#262424"/>
<path d="M507.37 427.36H507.17C506.642 427.309 506.156 427.051 505.819 426.643C505.481 426.234 505.32 425.708 505.37 425.18L511.45 362.73C511.476 362.467 511.553 362.212 511.677 361.979C511.801 361.747 511.97 361.54 512.174 361.373C512.377 361.205 512.612 361.079 512.865 361.003C513.117 360.926 513.382 360.899 513.645 360.925C513.908 360.951 514.163 361.028 514.396 361.152C514.628 361.276 514.834 361.445 515.002 361.649C515.17 361.852 515.296 362.087 515.372 362.34C515.449 362.592 515.476 362.857 515.45 363.12L509.37 425.57C509.318 426.063 509.084 426.52 508.715 426.85C508.345 427.181 507.866 427.363 507.37 427.36Z" fill="#262424"/>
<path d="M644.48 488.33C644.049 488.332 643.629 488.195 643.282 487.939C642.936 487.683 642.681 487.322 642.556 486.909C642.431 486.496 642.443 486.055 642.59 485.649C642.736 485.244 643.01 484.897 643.37 484.66C664.02 471 668.78 440.66 668.83 440.37C668.908 439.84 669.194 439.362 669.624 439.042C670.055 438.722 670.595 438.587 671.125 438.665C671.655 438.743 672.133 439.029 672.453 439.459C672.773 439.89 672.908 440.43 672.83 440.96C672.63 442.28 667.78 473.34 645.62 487.96C645.287 488.197 644.889 488.326 644.48 488.33Z" fill="#262424"/>
<path d="M540.14 1103.33C508.81 1102.99 443.14 1066.99 443.14 1066.99C441.14 1062.36 439.24 1057.61 437.46 1052.85C430.038 1032.53 423.918 1011.76 419.14 990.66C419.14 990.66 418.48 972.66 434.14 963.99C434.14 963.99 456.14 955.33 466.81 969.33C477.48 983.33 537.14 1038.66 537.14 1038.66C537.14 1038.66 568.81 1039.33 577.14 1055.33C585.47 1071.33 571.48 1103.66 540.14 1103.33Z" fill="#F0E3FF"/>
<path d="M447.406 1036.16C453.14 1034.55 456 1026.86 453.795 1018.97C451.589 1011.09 445.153 1005.99 439.42 1007.59C433.686 1009.2 430.826 1016.89 433.031 1024.78C435.236 1032.67 441.672 1037.76 447.406 1036.16Z" fill="white"/>
<path d="M445.34 1038.4C439.34 1038.4 433.34 1033.05 431.15 1025.27C429.963 1021.28 430.057 1017.02 431.42 1013.08C432.86 1009.22 435.52 1006.57 438.93 1005.62C442.34 1004.67 445.99 1005.55 449.22 1008.11C452.369 1010.81 454.647 1014.39 455.764 1018.39C456.882 1022.39 456.79 1026.62 455.5 1030.57C454.06 1034.43 451.4 1037.08 447.99 1038.04C447.127 1038.28 446.236 1038.4 445.34 1038.4V1038.4ZM441.64 1009.25C441.093 1009.25 440.547 1009.32 440.02 1009.47C438.873 1009.86 437.834 1010.51 436.992 1011.38C436.15 1012.25 435.529 1013.31 435.18 1014.47C434.111 1017.61 434.052 1021 435.01 1024.18C436.91 1030.99 442.26 1035.47 446.92 1034.18C448.067 1033.79 449.106 1033.14 449.948 1032.27C450.79 1031.4 451.411 1030.34 451.76 1029.18C452.76 1026.03 452.82 1022.65 451.932 1019.47C451.044 1016.29 449.247 1013.43 446.76 1011.25C445.326 1010.02 443.517 1009.32 441.63 1009.25H441.64Z" fill="#262424"/>
<path d="M518.15 1060C517.801 1060.01 517.456 1059.92 517.15 1059.75C480.9 1039.75 438.69 989.09 436.91 986.94C436.588 986.53 436.439 986.01 436.495 985.492C436.551 984.974 436.807 984.498 437.208 984.165C437.61 983.833 438.125 983.67 438.645 983.712C439.164 983.754 439.647 983.997 439.99 984.39C440.42 984.91 483.5 1036.66 519.08 1056.25C519.465 1056.46 519.77 1056.8 519.946 1057.2C520.122 1057.6 520.16 1058.05 520.054 1058.48C519.948 1058.91 519.704 1059.29 519.359 1059.56C519.015 1059.84 518.59 1059.99 518.15 1060Z" fill="#262424"/>
<path d="M534.81 1044.33C534.436 1044.33 534.068 1044.23 533.75 1044.03C499.24 1022.46 456.75 975.48 456.32 975.03C456.144 974.833 456.009 974.603 455.921 974.354C455.834 974.105 455.797 973.841 455.812 973.577C455.827 973.313 455.893 973.055 456.008 972.817C456.123 972.579 456.283 972.366 456.48 972.19C456.677 972.014 456.907 971.879 457.156 971.791C457.405 971.704 457.669 971.667 457.933 971.682C458.197 971.697 458.455 971.763 458.693 971.878C458.931 971.993 459.144 972.153 459.32 972.35C459.74 972.82 501.87 1019.35 535.89 1040.66C536.248 1040.9 536.52 1041.24 536.668 1041.64C536.815 1042.04 536.829 1042.48 536.708 1042.89C536.587 1043.31 536.338 1043.67 535.996 1043.93C535.654 1044.18 535.238 1044.33 534.81 1044.33Z" fill="#262424"/>
<path d="M540.14 1103.33C508.81 1102.99 443.14 1066.99 443.14 1066.99C441.14 1062.36 439.24 1057.61 437.46 1052.85C465.94 1070.63 519.14 1085.66 519.14 1085.66C508.14 1052.33 537.14 1038.66 537.14 1038.66C537.14 1038.66 568.81 1039.33 577.14 1055.33C585.47 1071.33 571.48 1103.66 540.14 1103.33Z" fill="white"/>
<path d="M540.61 1105.33H540.13C508.66 1104.99 444.89 1070.22 442.19 1068.74C441.795 1068.52 441.488 1068.16 441.32 1067.74C439.32 1063.21 437.44 1058.43 435.6 1053.51C435.453 1053.12 435.433 1052.69 435.541 1052.29C435.65 1051.88 435.882 1051.53 436.205 1051.26C436.528 1051 436.927 1050.84 437.343 1050.81C437.76 1050.78 438.175 1050.89 438.53 1051.11C462.26 1065.93 503.92 1078.99 516.2 1082.67C507.91 1050.67 536.01 1036.95 536.3 1036.81C536.581 1036.68 536.889 1036.61 537.2 1036.62C538.54 1036.62 570.2 1037.51 578.93 1054.37C583.4 1062.94 582.08 1075.37 575.57 1085.94C571.95 1091.95 566.816 1096.9 560.681 1100.31C554.546 1103.71 547.625 1105.44 540.61 1105.33ZM540.17 1101.33C546.571 1101.52 552.909 1100.01 558.532 1096.94C564.156 1093.88 568.862 1089.37 572.17 1083.89C577.87 1074.6 579.17 1063.49 575.4 1056.26C568.24 1042.51 541.53 1040.85 537.61 1040.68C534.08 1042.51 511.36 1055.6 521.07 1085.04C521.183 1085.38 521.201 1085.75 521.12 1086.11C521.04 1086.46 520.866 1086.79 520.615 1087.05C520.364 1087.31 520.047 1087.5 519.698 1087.59C519.348 1087.69 518.979 1087.69 518.63 1087.59C518.13 1087.45 470.63 1073.93 441.42 1057.5C442.51 1060.26 443.62 1062.96 444.74 1065.57C451.41 1069.16 511.3 1101.02 540.2 1101.34L540.17 1101.33Z" fill="#262424"/>
<path d="M418.31 950.16L429.81 982.66C429.81 982.66 445.81 993.16 458.81 975.66L451.81 939.66L418.31 950.16Z" fill="white"/>
<path d="M441.1 987.75C436.746 987.708 432.478 986.529 428.72 984.33C428.355 984.092 428.077 983.741 427.93 983.33L416.43 950.83C416.34 950.576 416.302 950.307 416.318 950.038C416.334 949.769 416.405 949.506 416.525 949.265C416.646 949.024 416.814 948.81 417.019 948.636C417.224 948.461 417.463 948.33 417.72 948.25L451.22 937.75C451.489 937.666 451.772 937.64 452.052 937.673C452.331 937.706 452.601 937.798 452.842 937.942C453.084 938.087 453.292 938.28 453.454 938.511C453.616 938.741 453.727 939.004 453.78 939.28L460.78 975.28C460.832 975.552 460.827 975.832 460.765 976.103C460.703 976.373 460.586 976.628 460.42 976.85C454.06 985.41 447 987.75 441.1 987.75ZM431.46 981.31C434.19 982.84 446.26 988.45 456.68 975.16L450.28 942.24L420.89 951.45L431.46 981.31Z" fill="#262424"/>
<path d="M465.14 933.33C439.14 971.99 395.81 953.99 395.81 953.99C371.14 898.66 314.48 727.99 314.48 727.99L130.48 521.99C130.48 521.99 92.48 443.33 149.81 410.66C207.14 377.99 255.14 447.33 255.14 447.33L379.88 644.88L402.48 680.66L414.71 730L465.14 933.33Z" fill="#F0E3FF"/>
<path d="M296.91 515.47C296.573 515.47 296.241 515.385 295.945 515.222C295.65 515.06 295.4 514.825 295.22 514.54L253.45 448.4C253.37 448.29 240.87 430.4 221.45 417.45C221.231 417.304 221.044 417.117 220.897 416.899C220.751 416.68 220.649 416.435 220.598 416.177C220.546 415.92 220.546 415.654 220.597 415.397C220.648 415.139 220.749 414.894 220.895 414.675C221.041 414.456 221.228 414.269 221.447 414.122C221.665 413.976 221.91 413.874 222.168 413.823C222.425 413.771 222.691 413.771 222.948 413.822C223.206 413.873 223.451 413.974 223.67 414.12C236.445 422.856 247.641 433.701 256.78 446.19L298.59 512.4C298.781 512.702 298.888 513.049 298.899 513.406C298.911 513.763 298.826 514.117 298.655 514.43C298.483 514.743 298.231 515.005 297.924 515.188C297.617 515.371 297.267 515.468 296.91 515.47V515.47Z" fill="#262424"/>
<path d="M275.88 482.17C275.579 482.176 275.28 482.115 275.007 481.99C274.733 481.865 274.491 481.679 274.298 481.448C274.106 481.216 273.969 480.944 273.896 480.652C273.824 480.359 273.818 480.055 273.88 479.76L277.63 461.85C278.509 457.686 277.753 453.343 275.52 449.72L248.11 405C247.843 404.548 247.763 404.009 247.89 403.5C248.016 402.99 248.338 402.55 248.786 402.276C249.234 402.002 249.771 401.914 250.283 402.033C250.794 402.152 251.239 402.467 251.52 402.91L279 447.62C281.76 452.101 282.698 457.469 281.62 462.62L277.87 480.53C277.785 480.994 277.539 481.413 277.175 481.714C276.81 482.014 276.352 482.175 275.88 482.17V482.17Z" fill="#262424"/>
<path d="M414.71 730C414.21 730.22 413.71 730.43 413.18 730.62C395.04 737.29 373.18 723.37 364.46 699.53C355.96 676.39 362.87 652.39 379.88 644.92L402.48 680.7L414.71 730Z" fill="white"/>
<path d="M406.15 927.66C405.738 927.659 405.336 927.531 404.999 927.293C404.663 927.055 404.408 926.718 404.27 926.33C380.5 859.52 337.27 728.33 334.71 720.4L148.95 498.61C148.604 498.206 148.433 497.68 148.474 497.149C148.515 496.619 148.766 496.126 149.17 495.78C149.574 495.434 150.1 495.263 150.631 495.304C151.161 495.345 151.654 495.596 152 496L338 718.13C338.164 718.324 338.29 718.548 338.37 718.79C338.82 720.16 383.64 856.48 408.02 924.99C408.127 925.291 408.16 925.612 408.117 925.929C408.075 926.245 407.957 926.546 407.774 926.807C407.591 927.069 407.348 927.282 407.065 927.431C406.783 927.579 406.469 927.658 406.15 927.66Z" fill="#262424"/>
<path d="M318.48 729.33C318.023 729.33 317.58 729.174 317.224 728.887C316.869 728.601 316.622 728.201 316.525 727.755C316.428 727.308 316.487 726.842 316.691 726.434C316.896 726.025 317.234 725.699 317.65 725.51L352.32 709.68C352.803 709.46 353.353 709.441 353.85 709.626C354.347 709.812 354.75 710.187 354.97 710.67C355.19 711.153 355.21 711.703 355.024 712.2C354.838 712.697 354.463 713.1 353.98 713.32L319.31 729.15C319.049 729.269 318.766 729.33 318.48 729.33Z" fill="#262424"/>
<path d="M413.82 942.9C407.921 942.933 402.04 942.262 396.3 940.9C395.804 940.752 395.386 940.417 395.132 939.967C394.877 939.516 394.808 938.984 394.937 938.484C395.067 937.983 395.385 937.552 395.826 937.28C396.266 937.009 396.795 936.92 397.3 937.03C397.64 937.12 431.86 945.78 455.07 923.52C455.453 923.153 455.967 922.953 456.497 922.964C457.028 922.975 457.533 923.197 457.9 923.58C458.267 923.963 458.467 924.477 458.456 925.007C458.445 925.538 458.223 926.043 457.84 926.41C443.84 939.89 426.52 942.9 413.82 942.9Z" fill="#262424"/>
<path d="M167.81 139.16C167.81 139.16 315.5 214.55 324.5 253.55C333.5 292.55 275.31 304.16 221.31 256.66C167.31 209.16 167.81 139.16 167.81 139.16Z" fill="#916DD5"/>
<path d="M282.48 241.5C276.16 244.19 275.98 255.67 279.15 269.5C282.32 283.33 312.82 283.17 316.15 278.17C319.48 273.17 317.98 254.34 314.32 249.17C310.66 244 290.31 238.16 282.48 241.5Z" fill="white"/>
<path d="M303.61 283.26C300.639 283.26 297.674 282.996 294.75 282.47C284.87 280.66 278.63 276.21 277.2 269.93C274.5 258.14 273.09 243.31 281.7 239.64C290.24 236.01 311.75 242.08 315.95 247.99C319.95 253.67 321.78 273.32 317.82 279.26C316 282 310.06 283.26 303.61 283.26ZM283.27 243.33C278.68 245.33 277.86 254.9 281.1 269.04C282.58 275.5 291.64 277.83 295.47 278.53C304.74 280.23 313.47 278.53 314.47 277.04C317.19 272.96 315.98 254.97 312.67 250.31C309.67 246.08 290.51 240.24 283.25 243.31L283.27 243.33Z" fill="#262424"/>
<path d="M268 242.16C259.61 243.56 263.67 262.99 266 272.16C268.33 281.33 282 284.66 281.5 272.16C281 259.66 278 240.5 268 242.16Z" fill="white"/>
<path d="M275.63 282.33C271.02 282.33 265.63 278.72 264.04 272.65C260.27 257.86 259.91 247.98 262.97 243.3C263.484 242.478 264.168 241.775 264.974 241.237C265.781 240.699 266.693 240.339 267.65 240.18V240.18C268.884 239.959 270.151 240.014 271.362 240.341C272.572 240.668 273.695 241.258 274.65 242.07C281.74 247.84 283.17 264.98 283.45 272.07C283.79 280.55 278.45 282 276.8 282.24C276.413 282.298 276.022 282.328 275.63 282.33ZM268.31 244.13C267.897 244.195 267.503 244.35 267.157 244.586C266.812 244.821 266.522 245.13 266.31 245.49C264 249.04 264.58 258.58 267.91 271.66C269.01 275.98 273.22 278.72 276.24 278.28C279.26 277.84 279.56 274.28 279.47 272.28C279.05 261.74 276.9 249.09 272.14 245.22C271.618 244.773 271.001 244.45 270.335 244.277C269.67 244.104 268.974 244.084 268.3 244.22V244.22L268.31 244.13Z" fill="#262424"/>
<path d="M136.48 553.33C136.48 553.33 191.81 457.33 327.15 370L247.15 311.33C247.15 311.33 228.48 221.16 167.82 139.16C167.82 139.16 115.82 125.99 85.82 128.66C55.82 131.33 13.15 195.33 13.15 195.33C13.15 195.33 41.15 372.01 58.48 430.68C75.81 489.35 136.48 553.33 136.48 553.33Z" fill="#916DD5"/>
<path d="M125.54 230.72C124.735 230.75 123.933 230.617 123.18 230.33C121.96 229.79 120.91 229.33 113.6 203.17C110.1 190.67 106.84 178.17 106.81 178.01C106.733 177.752 106.708 177.482 106.738 177.214C106.768 176.947 106.852 176.688 106.984 176.454C107.116 176.22 107.294 176.014 107.508 175.85C107.721 175.686 107.965 175.567 108.226 175.5C108.486 175.433 108.758 175.419 109.024 175.459C109.29 175.499 109.545 175.592 109.774 175.733C110.003 175.874 110.201 176.06 110.357 176.279C110.513 176.499 110.623 176.747 110.68 177.01C116.32 198.69 123.14 222.86 125.15 226.74C128.121 226.64 131.028 225.85 133.64 224.43C135.28 223.51 136.31 222.48 136.55 221.53C137.18 218.53 130.7 194.67 124.08 173.36C123.922 172.853 123.972 172.305 124.219 171.835C124.465 171.365 124.888 171.013 125.395 170.855C125.902 170.697 126.45 170.747 126.92 170.994C127.39 171.24 127.742 171.663 127.9 172.17C131.16 182.68 141.72 217.35 140.43 222.5C139.85 224.81 137.86 226.85 134.66 228.41C131.808 229.791 128.705 230.576 125.54 230.72Z" fill="#262424"/>
<path d="M130.48 524C130.105 524.001 129.738 523.896 129.419 523.697C129.101 523.499 128.845 523.216 128.68 522.879C128.516 522.542 128.449 522.166 128.488 521.793C128.527 521.42 128.669 521.066 128.9 520.77C129.76 519.67 215.7 410 303.09 365.47C303.325 365.341 303.583 365.261 303.849 365.233C304.115 365.206 304.384 365.233 304.64 365.311C304.896 365.39 305.133 365.519 305.338 365.691C305.543 365.863 305.712 366.074 305.833 366.313C305.955 366.551 306.028 366.811 306.047 367.078C306.067 367.345 306.032 367.613 305.946 367.867C305.86 368.12 305.724 368.353 305.546 368.553C305.368 368.753 305.152 368.915 304.91 369.03C218.31 413.15 132.91 522.12 132.07 523.22C131.883 523.463 131.642 523.66 131.366 523.796C131.09 523.931 130.787 524.001 130.48 524Z" fill="#262424"/>
<path d="M232.14 263.2C231.729 263.2 231.328 263.073 230.992 262.837C230.655 262.601 230.4 262.267 230.26 261.88C220.07 233.68 201.91 191.42 173.26 150.23C172.958 149.794 172.841 149.255 172.936 148.733C173.03 148.211 173.329 147.747 173.765 147.445C174.201 147.143 174.74 147.026 175.262 147.121C175.784 147.215 176.248 147.514 176.55 147.95C205.42 189.49 223.73 232.1 234 260.52C234.109 260.82 234.144 261.142 234.102 261.459C234.061 261.776 233.944 262.078 233.762 262.34C233.58 262.603 233.338 262.818 233.056 262.967C232.773 263.117 232.459 263.197 232.14 263.2Z" fill="#262424"/>
<path d="M134.31 146.41C133.57 157.67 123.84 166.41 123.84 166.41C121.84 160.23 115.34 149.98 108.67 141.53C108.67 141.53 105.91 156.53 104.12 169.22C96.75 170.77 67.03 170.59 58.75 153.22C58.75 153.22 60.12 115.89 95.75 113.22C111.07 112.14 129.42 126.3 134.31 146.41Z" fill="white"/>
<path d="M96 171.83C83.65 171.83 63.8 168.52 56.91 154.1C56.7714 153.807 56.7062 153.484 56.72 153.16C56.72 152.77 58.58 114.01 95.56 111.28C112.72 110.01 131.34 125.87 136.22 145.93C136.267 146.126 136.284 146.329 136.27 146.53C135.49 158.47 125.56 167.53 125.14 167.87C124.893 168.091 124.595 168.247 124.272 168.324C123.95 168.401 123.613 168.396 123.293 168.311C122.973 168.226 122.679 168.062 122.437 167.835C122.196 167.608 122.015 167.325 121.91 167.01C120.3 162.14 115.6 154.16 109.81 146.33C108.81 151.74 107.25 161.17 106.07 169.48C106.013 169.888 105.832 170.268 105.551 170.568C105.27 170.869 104.903 171.076 104.5 171.16C101.694 171.653 98.8482 171.877 96 171.83V171.83ZM60.74 152.83C68.28 167.55 93.84 168.56 102.31 167.47C104.08 155.24 106.64 141.3 106.66 141.15C106.729 140.771 106.905 140.42 107.169 140.139C107.432 139.857 107.772 139.658 108.145 139.566C108.519 139.473 108.912 139.49 109.277 139.615C109.641 139.74 109.962 139.967 110.2 140.27C115.44 146.91 121.5 155.94 124.52 162.76C127.22 159.69 131.67 153.63 132.25 146.58C127.25 126.58 109.43 114.26 95.85 115.27C81.85 116.27 71.67 122.99 65.64 135.13C62.9549 140.685 61.3078 146.683 60.78 152.83H60.74Z" fill="#262424"/>
<path d="M179.65 309.16L195.15 301.49C195.15 301.49 215.15 275.32 218.98 270.66C222.81 266 257.31 281.33 259.31 283.99C261.31 286.65 259.81 291.16 256.81 292.32C259.434 295.893 261.204 300.019 261.984 304.382C262.764 308.746 262.533 313.23 261.31 317.49C257.14 332.16 231.48 319.32 231.48 319.32C231.48 319.32 224.65 338.65 217.15 340.65C209.65 342.65 189.82 338.15 189.82 338.15L179.65 309.16Z" fill="white"/>
<path d="M212 343.16C202.91 343.16 190 340.26 189.34 340.11C189.011 340.034 188.706 339.876 188.454 339.651C188.202 339.425 188.011 339.139 187.9 338.82L177.73 309.82C177.57 309.36 177.583 308.857 177.767 308.406C177.951 307.955 178.294 307.586 178.73 307.37L193.81 299.91C196.36 296.58 213.81 273.79 217.4 269.39C218.33 268.26 219.9 267.73 222.18 267.79C232.27 268.01 258.64 279.79 260.88 282.79C261.526 283.695 261.953 284.738 262.127 285.837C262.3 286.936 262.216 288.06 261.88 289.12C261.482 290.555 260.697 291.852 259.61 292.87C261.955 296.573 263.489 300.73 264.109 305.069C264.73 309.408 264.423 313.828 263.21 318.04C262.812 319.642 262.05 321.13 260.984 322.389C259.917 323.648 258.574 324.644 257.06 325.3C249.38 328.68 237.33 324.13 232.57 322.05C230.47 327.43 224.57 340.74 217.63 342.6C215.784 343.02 213.893 343.208 212 343.16ZM191.3 336.45C197.41 337.76 211.19 340.17 216.6 338.73C221.32 337.47 227.06 325.73 229.6 318.66C229.695 318.393 229.845 318.149 230.041 317.944C230.237 317.74 230.475 317.579 230.738 317.473C231 317.368 231.283 317.319 231.566 317.33C231.849 317.342 232.127 317.413 232.38 317.54C236.61 319.65 249 324.54 255.49 321.64C256.462 321.217 257.321 320.572 258 319.758C258.679 318.944 259.158 317.982 259.4 316.95C260.55 313.003 260.777 308.844 260.063 304.795C259.348 300.746 257.712 296.915 255.28 293.6C255.08 293.356 254.941 293.068 254.874 292.76C254.806 292.451 254.813 292.131 254.893 291.826C254.973 291.521 255.124 291.239 255.334 291.003C255.543 290.767 255.806 290.585 256.1 290.47C256.595 290.239 257.032 289.9 257.378 289.478C257.724 289.056 257.971 288.561 258.1 288.03C258.26 287.563 258.311 287.065 258.251 286.575C258.19 286.084 258.019 285.614 257.75 285.2C254.67 282.09 224.11 269.6 220.5 272C216.8 276.52 196.97 302.45 196.77 302.72C196.584 302.964 196.345 303.163 196.07 303.3L182.16 310.18L191.3 336.45Z" fill="#262424"/>
<path d="M256.81 294.33C256.542 294.329 256.277 294.275 256.03 294.17L228.53 282.5C228.278 282.405 228.048 282.259 227.854 282.073C227.66 281.887 227.505 281.663 227.4 281.416C227.294 281.168 227.239 280.902 227.239 280.633C227.238 280.363 227.292 280.097 227.397 279.849C227.502 279.601 227.656 279.377 227.85 279.19C228.044 279.004 228.273 278.858 228.525 278.762C228.776 278.665 229.044 278.621 229.313 278.631C229.582 278.641 229.846 278.705 230.09 278.82L257.59 290.49C258.014 290.671 258.362 290.992 258.577 291.4C258.791 291.807 258.858 292.277 258.766 292.728C258.674 293.18 258.43 293.586 258.073 293.877C257.717 294.169 257.271 294.329 256.81 294.33Z" fill="#262424"/>
<path d="M201.14 343.33C201.14 343.33 130.93 417.78 97.78 439.79C96.14 440.877 94.5933 441.833 93.14 442.66C74 453.48 54.59 456 37.35 430.54C27 415.24 17.41 389.81 9.14001 350C-12.86 244 13.14 195.34 13.14 195.34C31.81 185.67 77.48 199.67 81.81 243.67C86.14 287.67 100.14 337.34 100.14 337.34L184.48 303.34L201.14 343.33Z" fill="#916DD5"/>
<path d="M102.7 438.35C102.279 438.349 101.87 438.215 101.53 437.967C101.19 437.72 100.936 437.371 100.806 436.971C100.675 436.572 100.674 436.141 100.802 435.74C100.93 435.34 101.181 434.99 101.52 434.74C133.45 411.35 190.96 351.16 198.8 342.9L183.4 305.9L100.89 339.16C100.63 339.265 100.35 339.313 100.07 339.303C99.7899 339.293 99.5149 339.223 99.2632 339.1C99.0114 338.976 98.7884 338.801 98.6087 338.586C98.4289 338.371 98.2965 338.12 98.22 337.85C98.08 337.35 84.12 287.5 79.82 243.85C77.93 224.63 68.09 213 60.18 206.63C49.37 197.93 34.61 193.23 22.58 194.63C22.3174 194.661 22.0512 194.64 21.7967 194.568C21.5423 194.496 21.3045 194.374 21.097 194.21C20.6778 193.879 20.4073 193.395 20.345 192.865C20.2827 192.335 20.4336 191.801 20.7646 191.382C21.0956 190.963 21.5796 190.692 22.11 190.63C35.35 189.06 50.9 193.98 62.69 203.46C71.2 210.31 81.78 222.8 83.81 243.4C87.57 281.58 98.81 324.57 101.49 334.57L183.75 301.41C184.238 301.215 184.784 301.22 185.269 301.424C185.753 301.628 186.138 302.014 186.34 302.5L203 342.5C203.148 342.856 203.191 343.248 203.121 343.628C203.052 344.007 202.875 344.359 202.61 344.64C201.97 345.32 138.32 412.64 103.89 437.9C103.553 438.176 103.135 438.334 102.7 438.35Z" fill="#262424"/>
<path d="M71.15 399.33C70.8477 399.329 70.5495 399.26 70.2778 399.128C70.006 398.995 69.7678 398.803 69.5811 398.565C69.3944 398.328 69.264 398.051 69.1997 397.755C69.1355 397.46 69.139 397.154 69.21 396.86C69.5 395.67 76.52 367.5 95.21 343.12C95.5428 342.731 96.012 342.485 96.521 342.431C97.03 342.378 97.5402 342.522 97.9464 342.833C98.3526 343.144 98.624 343.6 98.7046 344.105C98.7853 344.611 98.6691 345.128 98.38 345.55C80.2 369.25 73.14 397.55 73.07 397.81C72.9636 398.24 72.7174 398.623 72.3698 398.898C72.0223 399.173 71.5932 399.325 71.15 399.33Z" fill="#262424"/>
<path d="M97.81 438.66C97.81 439.04 97.81 439.41 97.81 439.79C96.17 440.877 94.6233 441.833 93.17 442.66C74 453.48 54.59 456 37.35 430.54C41.42 420.16 53.07 412.66 66.81 412.66C83.93 412.66 97.81 424.3 97.81 438.66Z" fill="white"/>
<path d="M176.48 354.66C176.15 354.661 175.824 354.58 175.533 354.425C175.242 354.27 174.993 354.045 174.81 353.77C163.93 337.45 163.81 317.82 163.81 316.99C163.81 316.46 164.021 315.951 164.396 315.576C164.771 315.201 165.28 314.99 165.81 314.99C166.34 314.99 166.849 315.201 167.224 315.576C167.599 315.951 167.81 316.46 167.81 316.99C167.81 317.18 167.95 336.27 178.14 351.55C178.341 351.851 178.456 352.201 178.474 352.562C178.492 352.923 178.411 353.283 178.241 353.602C178.07 353.921 177.817 354.188 177.507 354.374C177.197 354.561 176.842 354.659 176.48 354.66Z" fill="#262424"/>
<path d="M185.31 344C188.348 344 190.81 341.538 190.81 338.5C190.81 335.462 188.348 333 185.31 333C182.272 333 179.81 335.462 179.81 338.5C179.81 341.538 182.272 344 185.31 344Z" fill="white"/>
<path d="M185.31 346C183.827 346 182.377 345.56 181.143 344.736C179.91 343.912 178.949 342.741 178.381 341.37C177.813 340 177.665 338.492 177.954 337.037C178.244 335.582 178.958 334.246 180.007 333.197C181.056 332.148 182.392 331.434 183.847 331.144C185.302 330.855 186.81 331.003 188.18 331.571C189.551 332.139 190.722 333.1 191.546 334.333C192.37 335.567 192.81 337.017 192.81 338.5C192.807 340.488 192.016 342.394 190.61 343.8C189.204 345.206 187.298 345.997 185.31 346V346ZM185.31 335C184.618 335 183.941 335.205 183.366 335.59C182.79 335.974 182.341 336.521 182.076 337.161C181.812 337.8 181.742 338.504 181.877 339.183C182.012 339.862 182.346 340.485 182.835 340.975C183.325 341.464 183.948 341.798 184.627 341.933C185.306 342.068 186.01 341.998 186.649 341.734C187.289 341.469 187.836 341.02 188.22 340.444C188.605 339.869 188.81 339.192 188.81 338.5C188.81 337.572 188.441 336.682 187.785 336.025C187.129 335.369 186.238 335 185.31 335V335Z" fill="#262424"/>
<path d="M73.1 70L74.56 91.91L77 129.41C90 137.73 102.28 138.17 113.77 128.81L111.34 111.45L107.66 85.16L73.1 70Z" fill="white"/>
<path d="M95.91 137.74C89.53 137.74 82.88 135.527 75.96 131.1C75.696 130.932 75.4753 130.704 75.3155 130.435C75.1557 130.165 75.0613 129.862 75.04 129.55L71.1 70.17C71.0705 69.8241 71.1315 69.4764 71.2771 69.1613C71.4227 68.8461 71.6478 68.5742 71.9303 68.3724C72.2128 68.1706 72.543 68.0458 72.8883 68.0104C73.2337 67.9749 73.5824 68.0299 73.9 68.17L108.5 83.3C108.814 83.4373 109.087 83.6528 109.294 83.9259C109.5 84.1991 109.633 84.5207 109.68 84.86L115.79 128.51C115.838 128.851 115.797 129.199 115.67 129.52C115.544 129.84 115.337 130.123 115.07 130.34C109 135.28 102.63 137.74 95.91 137.74ZM79 128.26C91 135.67 101.76 135.57 111.7 127.95L105.91 86.54L75.35 73.17L79 128.26Z" fill="#262424"/>
<path d="M139.67 70.22C138.3 88.32 133.61 110.04 111.87 107.22C86.02 103.87 68.92 86.09 68.07 61.6C67.22 37.11 78.16 23.01 107.57 25.07C110.074 25.2388 112.559 25.6168 115 26.2C132 30.32 140.84 44.1 140.2 60.54C140.08 63.52 139.94 66.8 139.67 70.22Z" fill="white"/>
<path d="M115.55 109.47C114.232 109.468 112.916 109.381 111.61 109.21C101.614 108.073 92.1067 104.275 84.08 98.21C83.6623 97.8825 83.3918 97.4024 83.328 96.8754C83.2643 96.3484 83.4125 95.8177 83.74 95.4C84.0676 94.9823 84.5476 94.7118 85.0746 94.648C85.6016 94.5843 86.1323 94.7325 86.55 95.06C94.0089 100.692 102.843 104.218 112.13 105.27C118.13 106.04 122.86 104.91 126.67 101.81C134.9 95.11 136.9 80.5 137.67 70.1C137.93 66.71 138.07 63.5 138.19 60.5C138.82 44.26 129.75 31.88 114.52 28.18C114.004 28.0553 113.559 27.7309 113.282 27.278C113.006 26.8251 112.92 26.2808 113.045 25.765C113.17 25.2492 113.494 24.804 113.947 24.5273C114.4 24.2507 114.944 24.1653 115.46 24.29C132.66 28.46 142.9 42.4 142.19 60.65C142.08 63.55 141.93 66.94 141.66 70.4C140.82 81.53 138.66 97.23 129.18 104.91C125.314 107.986 120.488 109.6 115.55 109.47Z" fill="#262424"/>
<path d="M60.52 66.4C63.0887 69.9292 65.9596 73.2283 69.1 76.26L82.1 76.74L84.64 67.48C84.64 67.48 92.87 66.91 94.43 61.3C94.4714 61.1722 94.5048 61.042 94.53 60.91C94.92 59.08 96.4 50.91 94.85 38.32C94.85 38.32 114.85 46.57 125.69 47.43C129.58 47.74 134.07 46.14 138.23 43.95C146.56 39.57 153.59 25.63 151.89 16.37V16.19C149.23 2.62001 142.37 12.24 142.37 12.24C142.37 12.24 140.06 1.32001 133.17 0.700008C126.28 0.0800076 122.17 10.33 122.17 10.33C108.9 7.59078 95.233 7.3669 81.88 9.67001C55.41 14.4 62.49 32.53 62.49 32.53C62.49 32.53 43.06 39.29 60.52 66.4Z" fill="#262424"/>
<path d="M79.25 75.4C80.11 65.14 72.67 55.81 62.41 54.89C60.2335 54.6824 58.0374 54.8928 55.94 55.51C43.35 59.25 47.42 88.69 78.39 85.65L79.25 75.4Z" fill="white"/>
<path d="M74.13 87.88C58.35 87.88 49.49 79.05 47.65 69.62C46.18 62.11 49.43 55.37 55.39 53.62C57.7272 52.9318 60.174 52.6942 62.6 52.92C68.0674 53.4816 73.0926 56.1773 76.5845 60.4218C80.0763 64.6662 81.7528 70.1168 81.25 75.59C81.2062 76.1204 80.9536 76.6117 80.5475 76.9559C80.1415 77.3 79.6154 77.4687 79.085 77.425C78.5546 77.3812 78.0632 77.1285 77.7191 76.7225C77.375 76.3165 77.2062 75.7904 77.25 75.26C77.667 70.843 76.3262 66.4396 73.5183 63.0046C70.7104 59.5696 66.6617 57.3798 62.25 56.91C60.3257 56.7285 58.3844 56.9151 56.53 57.46C52.59 58.63 50.53 63.46 51.53 68.88C53.07 76.77 60.98 85.38 78.16 83.7C78.6904 83.6483 79.2197 83.8094 79.6313 84.1479C80.043 84.4864 80.3033 84.9745 80.355 85.505C80.4067 86.0354 80.2456 86.5647 79.9071 86.9763C79.5686 87.388 79.0804 87.6483 78.55 87.7C77.03 87.82 75.5567 87.88 74.13 87.88Z" fill="#262424"/>
<path d="M450.193 186.945L353.728 254C348.022 257.966 346.611 265.807 350.578 271.514L350.584 271.522C354.55 277.228 362.391 278.638 368.098 274.672L464.562 207.617C470.269 203.65 471.679 195.809 467.712 190.103L467.707 190.095C463.74 184.389 455.899 182.978 450.193 186.945Z" fill="white"/>
<path d="M361.6 282.28C360.698 282.279 359.797 282.195 358.91 282.03C356.068 281.506 353.445 280.151 351.373 278.135C349.302 276.119 347.875 273.534 347.275 270.706C346.674 267.879 346.926 264.937 347.998 262.253C349.071 259.57 350.916 257.264 353.3 255.63L450.25 189C453.442 186.807 457.374 185.971 461.182 186.677C464.99 187.383 468.362 189.573 470.555 192.765C472.748 195.957 473.584 199.889 472.878 203.697C472.172 207.505 469.982 210.877 466.79 213.07V213.07L369.84 279.7C367.419 281.377 364.545 282.277 361.6 282.28ZM458.49 190.43C456.346 190.428 454.253 191.08 452.49 192.3L355.54 258.93C354.392 259.718 353.411 260.724 352.652 261.891C351.893 263.059 351.372 264.364 351.117 265.733C350.863 267.101 350.88 268.507 351.169 269.869C351.458 271.231 352.012 272.522 352.8 273.67C353.588 274.818 354.594 275.799 355.761 276.558C356.929 277.317 358.234 277.838 359.603 278.093C360.971 278.347 362.377 278.33 363.739 278.041C365.101 277.752 366.392 277.198 367.54 276.41L464.49 209.78L465.62 211.43L464.49 209.78C466.222 208.594 467.562 206.92 468.342 204.972C469.121 203.023 469.305 200.886 468.869 198.833C468.433 196.78 467.397 194.903 465.893 193.439C464.389 191.975 462.484 190.99 460.42 190.61C459.786 190.496 459.144 190.439 458.5 190.44L458.49 190.43Z" fill="#262424"/>
<path d="M362.295 251.893L212.872 354.588C207.138 358.529 205.684 366.374 209.625 372.109L209.631 372.117C213.572 377.852 221.417 379.306 227.152 375.364L376.574 272.669C382.309 268.727 383.763 260.883 379.821 255.148L379.815 255.14C375.874 249.405 368.03 247.951 362.295 251.893Z" fill="white"/>
<path d="M220 379.57C219.098 379.569 218.197 379.485 217.31 379.32C214.468 378.796 211.844 377.441 209.773 375.425C207.702 373.409 206.275 370.824 205.675 367.996C205.074 365.169 205.326 362.227 206.398 359.543C207.471 356.859 209.316 354.554 211.7 352.92L361.16 250.24C364.352 248.047 368.284 247.211 372.092 247.917C375.9 248.623 379.272 250.813 381.465 254.005C383.658 257.197 384.494 261.129 383.788 264.937C383.082 268.745 380.892 272.117 377.7 274.31L228.28 377C225.847 378.681 222.958 379.578 220 379.57V379.57ZM369.41 251.67C367.266 251.668 365.173 252.32 363.41 253.54L214 356.23C212.852 357.018 211.871 358.024 211.112 359.191C210.353 360.359 209.832 361.664 209.577 363.033C209.323 364.401 209.34 365.807 209.629 367.169C209.918 368.531 210.472 369.822 211.26 370.97C212.048 372.118 213.054 373.099 214.221 373.858C215.389 374.617 216.694 375.138 218.063 375.393C219.431 375.647 220.837 375.63 222.199 375.341C223.561 375.052 224.852 374.498 226 373.71L375.43 271C377.162 269.814 378.502 268.14 379.282 266.192C380.061 264.243 380.245 262.106 379.809 260.053C379.373 258 378.337 256.123 376.833 254.659C375.329 253.195 373.424 252.21 371.36 251.83C370.716 251.717 370.064 251.664 369.41 251.67V251.67Z" fill="#262424"/>
<path d="M400.51 39.15L319.16 95.06C316.516 96.8809 314.502 99.4786 313.399 102.494C312.295 105.509 312.156 108.792 313 111.89L349.93 247.78C350.255 248.99 350.866 250.105 351.712 251.029C352.557 251.953 353.613 252.661 354.79 253.091C355.967 253.522 357.23 253.663 358.472 253.502C359.715 253.342 360.901 252.885 361.93 252.17L443.28 196.26C445.924 194.441 447.938 191.846 449.043 188.833C450.149 185.819 450.291 182.537 449.45 179.44L412.47 43.54C412.143 42.3361 411.532 41.2281 410.689 40.3086C409.846 39.3891 408.795 38.685 407.624 38.2552C406.453 37.8253 405.196 37.6822 403.958 37.8379C402.721 37.9936 401.538 38.4435 400.51 39.15V39.15Z" fill="white"/>
<path d="M357.48 255.56C356.316 255.559 355.162 255.352 354.07 254.95C352.596 254.415 351.274 253.53 350.217 252.372C349.16 251.214 348.399 249.817 348 248.3L311.06 112.41C310.115 108.908 310.281 105.199 311.535 101.796C312.789 98.3921 315.069 95.4619 318.06 93.41L399.41 37.5L400.54 39.15L399.41 37.5C400.701 36.6174 402.184 36.0561 403.735 35.8629C405.287 35.6697 406.862 35.8502 408.33 36.3893C409.798 36.9285 411.115 37.8106 412.173 38.9623C413.231 40.114 413.998 41.5018 414.41 43.01L451.34 178.9C452.285 182.402 452.119 186.111 450.865 189.514C449.611 192.918 447.331 195.848 444.34 197.9L363 253.82C361.379 254.947 359.454 255.553 357.48 255.56V255.56ZM404.91 39.77C403.744 39.7647 402.604 40.1134 401.64 40.77L320.29 96.68C317.987 98.2643 316.232 100.525 315.269 103.149C314.305 105.773 314.18 108.632 314.91 111.33L351.84 247.22C352.083 248.116 352.536 248.942 353.164 249.626C353.791 250.311 354.573 250.836 355.445 251.156C356.316 251.476 357.252 251.583 358.173 251.467C359.095 251.351 359.975 251.016 360.74 250.49L442.09 194.58C444.38 193 446.125 190.752 447.088 188.142C448.051 185.532 448.185 182.688 447.47 180L410.54 44.06C410.301 43.1616 409.848 42.3346 409.219 41.65C408.591 40.9654 407.805 40.4438 406.93 40.13C406.286 39.8931 405.606 39.7713 404.92 39.77H404.91Z" fill="#262424"/>
<path d="M410 32.63L328.65 88.54C326.006 90.359 323.992 92.9544 322.887 95.9675C321.781 98.9806 321.639 102.263 322.48 105.36L359.4 241.26C359.725 242.47 360.336 243.585 361.182 244.509C362.027 245.433 363.083 246.141 364.26 246.571C365.437 247.001 366.7 247.143 367.942 246.982C369.185 246.822 370.371 246.365 371.4 245.65L452.75 189.74C455.394 187.921 457.408 185.326 458.513 182.313C459.619 179.299 459.761 176.017 458.92 172.92L422 37C421.673 35.7915 421.06 34.6794 420.213 33.7573C419.366 32.8352 418.31 32.1303 417.134 31.7019C415.957 31.2735 414.695 31.1342 413.454 31.2957C412.212 31.4572 411.028 31.9148 410 32.63V32.63Z" fill="white"/>
<path d="M367 249C365.836 248.999 364.682 248.792 363.59 248.39C362.114 247.858 360.788 246.977 359.727 245.82C358.667 244.663 357.902 243.267 357.5 241.75L320.54 105.89C319.595 102.388 319.761 98.6791 321.015 95.2756C322.269 91.8721 324.549 88.9419 327.54 86.89L408.86 31C410.151 30.1174 411.634 29.5561 413.185 29.3629C414.737 29.1697 416.312 29.3502 417.78 29.8893C419.248 30.4285 420.565 31.3106 421.623 32.4623C422.681 33.614 423.448 35.0018 423.86 36.51L460.79 172.4C461.735 175.902 461.569 179.611 460.315 183.014C459.061 186.418 456.781 189.348 453.79 191.4L372.5 247.3C370.88 248.408 368.963 249.001 367 249V249ZM414.4 33.25C413.234 33.2447 412.094 33.5934 411.13 34.25L329.78 90.16C327.477 91.7444 325.722 94.0046 324.759 96.6288C323.795 99.253 323.67 102.112 324.4 104.81L361.33 240.7C361.573 241.596 362.026 242.422 362.654 243.106C363.281 243.791 364.063 244.316 364.935 244.636C365.806 244.956 366.742 245.063 367.663 244.947C368.585 244.831 369.465 244.496 370.23 243.97L451.58 188.06C453.885 186.483 455.643 184.23 456.614 181.612C457.585 178.993 457.72 176.138 457 173.44L420 37.55C419.761 36.6516 419.308 35.8246 418.679 35.14C418.051 34.4554 417.265 33.9338 416.39 33.62C415.753 33.382 415.08 33.2568 414.4 33.25Z" fill="#262424"/>
<path d="M1286.77 625.42C1286.24 625.42 1285.73 625.209 1285.36 624.834C1284.98 624.459 1284.77 623.95 1284.77 623.42V613.18C1284.77 612.65 1284.98 612.141 1285.36 611.766C1285.73 611.391 1286.24 611.18 1286.77 611.18C1287.3 611.18 1287.81 611.391 1288.18 611.766C1288.56 612.141 1288.77 612.65 1288.77 613.18V623.42C1288.77 623.95 1288.56 624.459 1288.18 624.834C1287.81 625.209 1287.3 625.42 1286.77 625.42Z" fill="#262424"/>
<path d="M1302.21 630.62H1292C1291.47 630.62 1290.96 630.409 1290.59 630.034C1290.21 629.659 1290 629.15 1290 628.62C1290 628.09 1290.21 627.581 1290.59 627.206C1290.96 626.831 1291.47 626.62 1292 626.62H1302.24C1302.77 626.624 1303.28 626.838 1303.65 627.216C1304.02 627.594 1304.23 628.105 1304.22 628.635C1304.22 629.165 1304.01 629.673 1303.63 630.045C1303.25 630.417 1302.74 630.624 1302.21 630.62Z" fill="#262424"/>
<path d="M1286.77 646.07C1286.24 646.07 1285.73 645.859 1285.36 645.484C1284.98 645.109 1284.77 644.6 1284.77 644.07V633.83C1284.77 633.3 1284.98 632.791 1285.36 632.416C1285.73 632.041 1286.24 631.83 1286.77 631.83C1287.3 631.83 1287.81 632.041 1288.18 632.416C1288.56 632.791 1288.77 633.3 1288.77 633.83V644.07C1288.77 644.6 1288.56 645.109 1288.18 645.484C1287.81 645.859 1287.3 646.07 1286.77 646.07Z" fill="#262424"/>
<path d="M1281.56 630.62H1271.32C1270.79 630.62 1270.28 630.409 1269.91 630.034C1269.53 629.659 1269.32 629.15 1269.32 628.62C1269.32 628.09 1269.53 627.581 1269.91 627.206C1270.28 626.831 1270.79 626.62 1271.32 626.62H1281.56C1282.09 626.62 1282.6 626.831 1282.97 627.206C1283.35 627.581 1283.56 628.09 1283.56 628.62C1283.56 629.15 1283.35 629.659 1282.97 630.034C1282.6 630.409 1282.09 630.62 1281.56 630.62Z" fill="#262424"/>
<path d="M597.82 168C597.29 168 596.781 167.789 596.406 167.414C596.031 167.039 595.82 166.53 595.82 166V152C595.82 151.47 596.031 150.961 596.406 150.586C596.781 150.211 597.29 150 597.82 150C598.35 150 598.859 150.211 599.234 150.586C599.609 150.961 599.82 151.47 599.82 152V166C599.82 166.53 599.609 167.039 599.234 167.414C598.859 167.789 598.35 168 597.82 168Z" fill="#262424"/>
<path d="M619 175.14H605C604.47 175.14 603.961 174.929 603.586 174.554C603.211 174.179 603 173.67 603 173.14C603 172.61 603.211 172.101 603.586 171.726C603.961 171.351 604.47 171.14 605 171.14H619C619.53 171.14 620.039 171.351 620.414 171.726C620.789 172.101 621 172.61 621 173.14C621 173.67 620.789 174.179 620.414 174.554C620.039 174.929 619.53 175.14 619 175.14Z" fill="#262424"/>
<path d="M597.82 196.32C597.29 196.32 596.781 196.109 596.406 195.734C596.031 195.359 595.82 194.85 595.82 194.32V180.32C595.82 179.79 596.031 179.281 596.406 178.906C596.781 178.531 597.29 178.32 597.82 178.32C598.35 178.32 598.859 178.531 599.234 178.906C599.609 179.281 599.82 179.79 599.82 180.32V194.32C599.82 194.85 599.609 195.359 599.234 195.734C598.859 196.109 598.35 196.32 597.82 196.32Z" fill="#262424"/>
<path d="M590.68 175.14H576.68C576.15 175.14 575.641 174.929 575.266 174.554C574.891 174.179 574.68 173.67 574.68 173.14C574.68 172.61 574.891 172.101 575.266 171.726C575.641 171.351 576.15 171.14 576.68 171.14H590.68C591.21 171.14 591.719 171.351 592.094 171.726C592.469 172.101 592.68 172.61 592.68 173.14C592.68 173.67 592.469 174.179 592.094 174.554C591.719 174.929 591.21 175.14 590.68 175.14Z" fill="#262424"/>
<path d="M1165 104.93C1164.47 104.93 1163.96 104.719 1163.59 104.344C1163.21 103.969 1163 103.46 1163 102.93V91.35C1163 90.8195 1163.21 90.3108 1163.59 89.9358C1163.96 89.5607 1164.47 89.35 1165 89.35C1165.53 89.35 1166.04 89.5607 1166.41 89.9358C1166.79 90.3108 1167 90.8195 1167 91.35V102.93C1167 103.46 1166.79 103.969 1166.41 104.344C1166.04 104.719 1165.53 104.93 1165 104.93Z" fill="#262424"/>
<path d="M1182.45 110.81H1170.87C1170.34 110.81 1169.83 110.599 1169.46 110.224C1169.08 109.849 1168.87 109.34 1168.87 108.81C1168.87 108.28 1169.08 107.771 1169.46 107.396C1169.83 107.021 1170.34 106.81 1170.87 106.81H1182.45C1182.98 106.81 1183.49 107.021 1183.86 107.396C1184.24 107.771 1184.45 108.28 1184.45 108.81C1184.45 109.34 1184.24 109.849 1183.86 110.224C1183.49 110.599 1182.98 110.81 1182.45 110.81Z" fill="#262424"/>
<path d="M1165 128.27C1164.47 128.27 1163.96 128.059 1163.59 127.684C1163.21 127.309 1163 126.8 1163 126.27V114.7C1163 114.17 1163.21 113.661 1163.59 113.286C1163.96 112.911 1164.47 112.7 1165 112.7C1165.53 112.7 1166.04 112.911 1166.41 113.286C1166.79 113.661 1167 114.17 1167 114.7V126.28C1167 126.809 1166.79 127.315 1166.41 127.688C1166.04 128.061 1165.53 128.27 1165 128.27Z" fill="#262424"/>
<path d="M1159.11 110.81H1147.53C1147 110.81 1146.49 110.599 1146.12 110.224C1145.74 109.849 1145.53 109.34 1145.53 108.81C1145.53 108.28 1145.74 107.771 1146.12 107.396C1146.49 107.021 1147 106.81 1147.53 106.81H1159.11C1159.64 106.81 1160.15 107.021 1160.52 107.396C1160.9 107.771 1161.11 108.28 1161.11 108.81C1161.11 109.34 1160.9 109.849 1160.52 110.224C1160.15 110.599 1159.64 110.81 1159.11 110.81Z" fill="#262424"/>
<path d="M222.29 55.43C227.045 55.43 230.9 51.5752 230.9 46.82C230.9 42.0649 227.045 38.21 222.29 38.21C217.535 38.21 213.68 42.0649 213.68 46.82C213.68 51.5752 217.535 55.43 222.29 55.43Z" fill="#F0E3FF"/>
<path d="M1146.8 351.75C1156.85 351.75 1165 343.602 1165 333.55C1165 323.498 1156.85 315.35 1146.8 315.35C1136.75 315.35 1128.6 323.498 1128.6 333.55C1128.6 343.602 1136.75 351.75 1146.8 351.75Z" fill="#916DD5"/>
<path d="M165.81 1006.77C173.095 1006.77 179 1000.86 179 993.58C179 986.295 173.095 980.39 165.81 980.39C158.525 980.39 152.62 986.295 152.62 993.58C152.62 1000.86 158.525 1006.77 165.81 1006.77Z" fill="#916DD5"/>
<path d="M203.57 780C207.436 780 210.57 776.866 210.57 773C210.57 769.134 207.436 766 203.57 766C199.704 766 196.57 769.134 196.57 773C196.57 776.866 199.704 780 203.57 780Z" fill="#F0E3FF"/>
<path d="M632.17 920.31C631.73 920.309 631.303 920.164 630.955 919.896C630.606 919.628 630.356 919.252 630.242 918.828C630.128 918.403 630.157 917.953 630.325 917.547C630.493 917.14 630.79 916.801 631.17 916.58L686.76 884.28L645.76 860.64C645.457 860.464 645.205 860.212 645.03 859.908C644.856 859.605 644.764 859.26 644.764 858.91C644.764 858.56 644.856 858.215 645.03 857.912C645.205 857.608 645.457 857.356 645.76 857.18L706.42 821.93C706.877 821.691 707.409 821.638 707.904 821.781C708.4 821.925 708.82 822.255 709.079 822.701C709.337 823.148 709.412 823.677 709.29 824.178C709.167 824.679 708.855 825.113 708.42 825.39L650.75 858.91L691.75 882.55C692.053 882.726 692.305 882.978 692.48 883.282C692.654 883.585 692.746 883.93 692.746 884.28C692.746 884.63 692.654 884.975 692.48 885.278C692.305 885.582 692.053 885.834 691.75 886.01L633.18 920.01C632.876 920.198 632.527 920.302 632.17 920.31V920.31Z" fill="#272525"/>
<path d="M504.51 892.64C504.074 892.636 503.65 892.488 503.305 892.221C502.96 891.954 502.712 891.581 502.599 891.159C502.486 890.738 502.513 890.291 502.678 889.886C502.842 889.482 503.135 889.143 503.51 888.92L574.62 847.09L502.92 805.7C502.617 805.524 502.365 805.272 502.19 804.968C502.016 804.665 501.924 804.32 501.924 803.97C501.924 803.62 502.016 803.275 502.19 802.972C502.365 802.668 502.617 802.416 502.92 802.24L584 755.11C584.457 754.871 584.989 754.818 585.484 754.961C585.98 755.105 586.4 755.435 586.659 755.881C586.917 756.328 586.992 756.857 586.87 757.358C586.747 757.859 586.435 758.293 586 758.57L507.91 804L579.57 845.37C579.873 845.546 580.125 845.798 580.299 846.102C580.474 846.405 580.566 846.75 580.566 847.1C580.566 847.45 580.474 847.795 580.299 848.098C580.125 848.402 579.873 848.654 579.57 848.83L505.5 892.4C505.196 892.564 504.855 892.647 504.51 892.64V892.64Z" fill="#272525"/>
<path d="M499.27 910.08C488.36 910.08 479.81 905.28 479.81 899.15C479.81 893.02 488.36 888.22 499.27 888.22C510.18 888.22 518.73 893.02 518.73 899.15C518.73 905.28 510.18 910.08 499.27 910.08ZM499.27 892.23C490.16 892.23 483.81 895.88 483.81 899.16C483.81 902.44 490.16 906.09 499.27 906.09C508.38 906.09 514.73 902.44 514.73 899.16C514.73 895.88 508.38 892.23 499.27 892.23Z" fill="#272525"/>
<path d="M529.42 710.94H473.53C473 710.94 472.491 710.729 472.116 710.354C471.741 709.979 471.53 709.47 471.53 708.94C471.53 708.41 471.741 707.901 472.116 707.526C472.491 707.151 473 706.94 473.53 706.94H529.41C529.94 706.939 530.45 707.148 530.826 707.522C531.202 707.896 531.414 708.405 531.415 708.935C531.416 709.465 531.207 709.975 530.833 710.351C530.459 710.727 529.95 710.939 529.42 710.94Z" fill="#272525"/>
<path d="M456.07 719.87C445.16 719.87 436.61 715.07 436.61 708.94C436.61 702.81 445.15 698 456.07 698C466.99 698 475.53 702.8 475.53 708.93C475.53 715.06 467 719.87 456.07 719.87ZM456.07 702.02C446.96 702.02 440.61 705.67 440.61 708.95C440.61 712.23 446.96 715.88 456.07 715.88C465.18 715.88 471.53 712.23 471.53 708.95C471.53 705.67 465.18 702 456.07 702V702.02Z" fill="#272525"/>
<path d="M1128.13 920.31C1127.78 920.309 1127.43 920.216 1127.13 920.04L1068.56 886.04C1068.26 885.864 1068.01 885.612 1067.83 885.308C1067.66 885.005 1067.56 884.66 1067.56 884.31C1067.56 883.96 1067.66 883.615 1067.83 883.312C1068.01 883.008 1068.26 882.756 1068.56 882.58L1109.56 858.94L1051.89 825.42C1051.65 825.295 1051.44 825.123 1051.27 824.914C1051.1 824.705 1050.97 824.464 1050.9 824.205C1050.82 823.946 1050.8 823.674 1050.83 823.407C1050.86 823.139 1050.95 822.88 1051.09 822.647C1051.22 822.413 1051.4 822.21 1051.62 822.048C1051.83 821.886 1052.08 821.769 1052.34 821.705C1052.6 821.641 1052.88 821.631 1053.14 821.674C1053.41 821.718 1053.66 821.815 1053.89 821.96L1114.55 857.21C1114.85 857.386 1115.1 857.638 1115.28 857.942C1115.45 858.245 1115.55 858.59 1115.55 858.94C1115.55 859.29 1115.45 859.635 1115.28 859.938C1115.1 860.242 1114.85 860.494 1114.55 860.67L1073.55 884.31L1129.14 916.61C1129.51 916.837 1129.79 917.177 1129.95 917.578C1130.11 917.979 1130.13 918.421 1130.02 918.837C1129.9 919.253 1129.66 919.622 1129.32 919.887C1128.98 920.152 1128.56 920.301 1128.13 920.31Z" fill="#272525"/>
<path d="M1278.49 905.3C1278.14 905.299 1277.79 905.206 1277.49 905.03L1180.72 848.8C1180.42 848.624 1180.17 848.372 1179.99 848.068C1179.82 847.765 1179.72 847.42 1179.72 847.07C1179.72 846.72 1179.82 846.375 1179.99 846.072C1180.17 845.768 1180.42 845.516 1180.72 845.34L1252.39 804L1174.28 758.61C1174.04 758.485 1173.83 758.313 1173.66 758.104C1173.49 757.895 1173.36 757.654 1173.29 757.395C1173.21 757.136 1173.19 756.864 1173.22 756.597C1173.25 756.329 1173.34 756.07 1173.48 755.837C1173.61 755.603 1173.79 755.4 1174.01 755.238C1174.22 755.076 1174.47 754.959 1174.73 754.895C1174.99 754.831 1175.27 754.821 1175.53 754.864C1175.8 754.908 1176.05 755.005 1176.28 755.15L1257.37 802.28C1257.67 802.456 1257.92 802.708 1258.1 803.012C1258.27 803.315 1258.37 803.66 1258.37 804.01C1258.37 804.36 1258.27 804.705 1258.1 805.008C1257.92 805.312 1257.67 805.564 1257.37 805.74L1185.71 847.11L1279.49 901.61C1279.85 901.838 1280.13 902.177 1280.29 902.575C1280.44 902.974 1280.46 903.412 1280.35 903.824C1280.24 904.237 1280 904.603 1279.66 904.869C1279.33 905.134 1278.92 905.286 1278.49 905.3V905.3Z" fill="#272525"/>
<path d="M1283.73 922.74C1272.82 922.74 1264.27 917.94 1264.27 911.81C1264.27 905.68 1272.82 900.88 1283.73 900.88C1294.64 900.88 1303.19 905.68 1303.19 911.81C1303.19 917.94 1294.64 922.74 1283.73 922.74ZM1283.73 904.89C1274.62 904.89 1268.27 908.54 1268.27 911.82C1268.27 915.1 1274.62 918.75 1283.73 918.75C1292.84 918.75 1299.19 915.1 1299.19 911.82C1299.19 908.54 1292.84 904.89 1283.73 904.89Z" fill="#272525"/>
<path d="M1052.86 506.17C1052.42 506.169 1051.99 506.024 1051.64 505.756C1051.3 505.488 1051.05 505.113 1050.93 504.688C1050.82 504.263 1050.85 503.813 1051.01 503.407C1051.18 503 1051.48 502.661 1051.86 502.44L1109.53 468.92L1068.53 445.28C1068.23 445.104 1067.98 444.852 1067.8 444.548C1067.63 444.245 1067.53 443.9 1067.53 443.55C1067.53 443.2 1067.63 442.855 1067.8 442.552C1067.98 442.248 1068.23 441.996 1068.53 441.82L1127.1 407.82C1127.33 407.675 1127.58 407.578 1127.85 407.534C1128.11 407.491 1128.39 407.501 1128.65 407.565C1128.91 407.629 1129.16 407.746 1129.37 407.908C1129.59 408.07 1129.77 408.273 1129.9 408.507C1130.04 408.74 1130.13 408.999 1130.16 409.267C1130.19 409.534 1130.17 409.806 1130.09 410.065C1130.02 410.324 1129.89 410.565 1129.72 410.774C1129.55 410.983 1129.34 411.155 1129.1 411.28L1073.51 443.58L1114.51 467.22C1114.81 467.396 1115.06 467.648 1115.24 467.952C1115.41 468.255 1115.51 468.6 1115.51 468.95C1115.51 469.3 1115.41 469.645 1115.24 469.948C1115.06 470.252 1114.81 470.504 1114.51 470.68L1053.85 505.93C1053.55 506.094 1053.21 506.177 1052.86 506.17Z" fill="#272525"/>
<path d="M1156.82 605.81C1156.38 605.809 1155.95 605.664 1155.6 605.396C1155.26 605.128 1155.01 604.752 1154.89 604.328C1154.78 603.903 1154.81 603.453 1154.97 603.047C1155.14 602.64 1155.44 602.301 1155.82 602.08L1221.95 563.64L1150.29 522.27C1149.99 522.094 1149.74 521.842 1149.56 521.538C1149.39 521.235 1149.29 520.89 1149.29 520.54C1149.29 520.19 1149.39 519.845 1149.56 519.542C1149.74 519.238 1149.99 518.986 1150.29 518.81L1247 462.57C1247.23 462.425 1247.48 462.328 1247.75 462.284C1248.01 462.241 1248.29 462.251 1248.55 462.315C1248.81 462.379 1249.06 462.496 1249.27 462.658C1249.49 462.82 1249.67 463.023 1249.8 463.257C1249.94 463.49 1250.03 463.749 1250.06 464.017C1250.09 464.284 1250.07 464.556 1249.99 464.815C1249.92 465.074 1249.79 465.315 1249.62 465.524C1249.45 465.733 1249.24 465.905 1249 466.03L1155.22 520.53L1226.88 561.9C1227.18 562.076 1227.43 562.328 1227.61 562.632C1227.78 562.935 1227.88 563.28 1227.88 563.63C1227.88 563.98 1227.78 564.325 1227.61 564.628C1227.43 564.932 1227.18 565.184 1226.88 565.36L1157.76 605.53C1157.47 605.7 1157.15 605.796 1156.82 605.81Z" fill="#272525"/>
<path d="M1253.29 466.71C1242.38 466.71 1233.83 461.91 1233.83 455.78C1233.83 449.65 1242.38 444.85 1253.29 444.85C1264.2 444.85 1272.75 449.65 1272.75 455.78C1272.75 461.91 1264.2 466.71 1253.29 466.71ZM1253.29 448.86C1244.18 448.86 1237.83 452.51 1237.83 455.79C1237.83 459.07 1244.18 462.72 1253.29 462.72C1262.4 462.72 1268.75 459.07 1268.75 455.79C1268.75 452.51 1262.4 448.86 1253.29 448.86Z" fill="#272525"/>
<path d="M606.8 592.55C606.449 592.549 606.104 592.456 605.8 592.28L538.4 553.11C538.097 552.934 537.845 552.682 537.67 552.378C537.496 552.075 537.404 551.73 537.404 551.38C537.404 551.03 537.496 550.685 537.67 550.382C537.845 550.078 538.097 549.826 538.4 549.65L597.47 515.55L567 497.67C566.751 497.551 566.53 497.381 566.35 497.172C566.17 496.963 566.035 496.72 565.954 496.456C565.872 496.192 565.847 495.915 565.878 495.641C565.909 495.367 565.996 495.102 566.135 494.864C566.273 494.625 566.459 494.418 566.681 494.254C566.904 494.091 567.157 493.976 567.427 493.915C567.696 493.855 567.974 493.851 568.245 493.903C568.516 493.956 568.773 494.063 569 494.22L602.39 513.83C602.693 514.006 602.945 514.258 603.12 514.562C603.294 514.865 603.386 515.21 603.386 515.56C603.386 515.91 603.294 516.255 603.12 516.558C602.945 516.862 602.693 517.114 602.39 517.29L543.34 551.39L607.75 588.82C608.127 589.038 608.422 589.374 608.591 589.775C608.76 590.177 608.793 590.622 608.686 591.044C608.578 591.466 608.336 591.842 607.996 592.114C607.655 592.385 607.235 592.539 606.8 592.55Z" fill="#272525"/>
<path d="M563.71 498.29C554.3 498.29 547.2 494.29 547.2 488.87C547.2 483.45 554.3 479.45 563.71 479.45C573.12 479.45 580.22 483.45 580.22 488.87C580.22 494.29 573.12 498.29 563.71 498.29ZM563.71 483.45C556.55 483.45 551.2 486.31 551.2 488.87C551.2 491.43 556.55 494.29 563.71 494.29C570.87 494.29 576.22 491.43 576.22 488.87C576.22 486.31 570.87 483.45 563.71 483.45V483.45Z" fill="#272525"/>
<path d="M1286.77 710.94H1230.89C1230.36 710.94 1229.85 710.729 1229.48 710.354C1229.1 709.979 1228.89 709.47 1228.89 708.94C1228.89 708.41 1229.1 707.901 1229.48 707.526C1229.85 707.151 1230.36 706.94 1230.89 706.94H1286.77C1287.3 706.94 1287.81 707.151 1288.18 707.526C1288.56 707.901 1288.77 708.41 1288.77 708.94C1288.77 709.47 1288.56 709.979 1288.18 710.354C1287.81 710.729 1287.3 710.94 1286.77 710.94Z" fill="#272525"/>
<path d="M1304.23 719.87C1293.32 719.87 1284.77 715.07 1284.77 708.94C1284.77 702.81 1293.32 698.01 1304.23 698.01C1315.14 698.01 1323.69 702.81 1323.69 708.94C1323.69 715.07 1315.14 719.87 1304.23 719.87ZM1304.23 702.02C1295.12 702.02 1288.77 705.67 1288.77 708.95C1288.77 712.23 1295.12 715.88 1304.23 715.88C1313.34 715.88 1319.69 712.23 1319.69 708.95C1319.69 705.67 1313.34 702 1304.23 702V702.02Z" fill="#272525"/>
<path d="M879.09 1001.52C878.56 1001.52 878.051 1001.31 877.676 1000.93C877.301 1000.56 877.09 1000.05 877.09 999.52V928.89C877.09 928.36 877.301 927.851 877.676 927.476C878.051 927.101 878.56 926.89 879.09 926.89C879.62 926.89 880.129 927.101 880.504 927.476C880.879 927.851 881.09 928.36 881.09 928.89V999.52C881.09 1000.05 880.879 1000.56 880.504 1000.93C880.129 1001.31 879.62 1001.52 879.09 1001.52Z" fill="#272525"/>
<path d="M879.09 1028.59C868.18 1028.59 859.63 1023.79 859.63 1017.66C859.63 1011.53 868.18 1006.73 879.09 1006.73C890 1006.73 898.55 1011.53 898.55 1017.66C898.55 1023.79 890 1028.59 879.09 1028.59ZM879.09 1010.74C869.98 1010.74 863.63 1014.39 863.63 1017.67C863.63 1020.95 869.98 1024.6 879.09 1024.6C888.2 1024.6 894.55 1020.95 894.55 1017.67C894.55 1014.39 888.2 1010.74 879.09 1010.74Z" fill="#272525"/>
<path d="M1207.48 663.9L880.15 854.13L550.69 663.91L878.02 473.69L1207.48 663.9Z" fill="#F0E3FF"/>
<path d="M880.15 856.12C879.799 856.119 879.454 856.026 879.15 855.85L549.69 665.64C549.387 665.464 549.135 665.212 548.96 664.908C548.786 664.605 548.694 664.26 548.694 663.91C548.694 663.56 548.786 663.215 548.96 662.912C549.135 662.608 549.387 662.356 549.69 662.18L877 472C877.304 471.824 877.649 471.732 878 471.732C878.351 471.732 878.696 471.824 879 472L1208.46 662.21C1208.76 662.386 1209.01 662.638 1209.19 662.942C1209.36 663.245 1209.46 663.59 1209.46 663.94C1209.46 664.29 1209.36 664.635 1209.19 664.938C1209.01 665.242 1208.76 665.494 1208.46 665.67L881.13 855.89C880.828 856.049 880.491 856.128 880.15 856.12V856.12ZM554.68 663.91L880.14 851.82L1203.49 663.91L878 476L554.68 663.91Z" fill="#F0E3FF"/>
<path d="M804.26 730.2L750.73 699.29C750.376 699.083 749.974 698.975 749.565 698.975C749.156 698.975 748.754 699.083 748.4 699.29L680.4 738.81L685.05 741.49L749.56 704L798.45 732.22L766.45 750.79L733.92 769.7L738.57 772.39L768.82 754.81L804.27 734.23C804.617 734.024 804.906 733.731 805.107 733.381C805.309 733.031 805.416 732.634 805.42 732.23C805.424 731.819 805.318 731.415 805.114 731.058C804.911 730.702 804.616 730.405 804.26 730.2Z" fill="white"/>
<path d="M935.87 757.7L881.94 789L937.23 821L932.58 823.7L877.29 791.78L824.86 822.2L820.21 819.52L876.13 787L934.69 753C935.046 752.795 935.449 752.687 935.86 752.687C936.271 752.687 936.674 752.795 937.03 753L995.79 786.93L991.16 789.62L935.87 757.7Z" fill="white"/>
<path d="M1175.23 682.64L1170.6 685.34L1074.06 629.61L991.18 677.79L951 701.12L1047.53 756.85L1042.88 759.55L945.19 703.14C944.839 702.937 944.547 702.646 944.343 702.295C944.14 701.944 944.032 701.546 944.03 701.14C944.034 700.736 944.141 700.339 944.343 699.989C944.544 699.639 944.833 699.346 945.18 699.14L985.38 675.77L820.14 580.37L613.75 700.37L609.1 697.68L819 575.66H819.06L819.3 575.56L819.49 575.49L819.72 575.43H819.93H820.37H820.61H820.82C820.892 575.448 820.962 575.471 821.03 575.5L821.25 575.6H821.32L990 673.07L1072.87 624.9C1073.22 624.694 1073.63 624.585 1074.04 624.585C1074.44 624.585 1074.85 624.694 1075.2 624.9L1175.23 682.64Z" fill="white"/>
<path d="M1019.43 555.32L987.72 573.75L980.79 569.75L922.73 536.23L954.44 517.8L949.79 515.12L918.08 533.55L846.31 492.11L841.66 494.81L916.91 538.25L986.54 578.45C986.718 578.553 986.91 578.631 987.11 578.68C987.302 578.735 987.5 578.762 987.7 578.76H987.9C988.035 578.753 988.169 578.733 988.3 578.7C988.368 578.682 988.435 578.659 988.5 578.63C988.624 578.586 988.744 578.533 988.86 578.47V578.47L1024.06 558.01L1019.43 555.32Z" fill="white"/>
<path d="M754.48 580.32L724.41 563L719.76 565.7L748.67 582.38L672.32 626.75L643.41 610L638.78 612.69L671.16 631.39C671.512 631.594 671.913 631.701 672.32 631.7C672.734 631.701 673.14 631.594 673.5 631.39L754.5 584.32C754.847 584.114 755.136 583.821 755.337 583.471C755.539 583.12 755.646 582.724 755.65 582.32C755.649 581.913 755.541 581.513 755.335 581.162C755.13 580.811 754.835 580.52 754.48 580.32V580.32Z" fill="white"/>
<path d="M880.15 854.13L879.83 899.15L550.37 708.94L550.69 663.91L880.15 854.13Z" fill="white"/>
<path d="M879.83 901.15C879.479 901.149 879.134 901.056 878.83 900.88L549.37 710.67C549.063 710.493 548.809 710.238 548.633 709.93C548.458 709.623 548.367 709.274 548.37 708.92L548.69 663.92C548.692 663.57 548.786 663.227 548.962 662.924C549.139 662.622 549.392 662.371 549.695 662.197C549.999 662.023 550.343 661.931 550.693 661.932C551.043 661.933 551.387 662.025 551.69 662.2L881.15 852.41C881.457 852.587 881.711 852.842 881.887 853.15C882.062 853.457 882.153 853.806 882.15 854.16L881.83 899.16C881.827 899.689 881.615 900.195 881.241 900.568C880.866 900.941 880.359 901.15 879.83 901.15ZM552.38 707.79L877.85 895.7L878.14 855.27L552.67 667.36L552.38 707.79Z" fill="#262424"/>
<path d="M879.51 854.13L879.83 899.15L1207.8 708.94L1207.48 663.91L879.51 854.13Z" fill="white"/>
<path d="M879.83 901.15C879.3 901.15 878.791 900.939 878.416 900.564C878.041 900.189 877.83 899.68 877.83 899.15L877.51 854.15C877.509 853.798 877.6 853.451 877.776 853.146C877.952 852.84 878.205 852.586 878.51 852.41L1206.51 662.2C1206.81 662.025 1207.16 661.933 1207.51 661.932C1207.86 661.931 1208.2 662.023 1208.5 662.197C1208.81 662.371 1209.06 662.622 1209.24 662.924C1209.41 663.227 1209.51 663.57 1209.51 663.92L1209.83 708.92C1209.83 709.272 1209.74 709.619 1209.56 709.925C1209.39 710.23 1209.14 710.484 1208.83 710.66L880.83 900.87C880.527 901.05 880.182 901.146 879.83 901.15V901.15ZM881.52 855.27L881.81 895.69L1205.81 707.79L1205.52 667.37L881.52 855.27Z" fill="#262424"/>
<path d="M1035.75 611.64L879.65 702.35L722.53 611.64L878.63 520.93L1035.75 611.64Z" fill="white"/>
<path d="M879.65 704.35C879.299 704.349 878.954 704.256 878.65 704.08L721.54 613.38C721.237 613.204 720.985 612.952 720.81 612.648C720.636 612.345 720.544 612 720.544 611.65C720.544 611.3 720.636 610.955 720.81 610.652C720.985 610.348 721.237 610.096 721.54 609.92L877.64 519.21C877.944 519.034 878.289 518.942 878.64 518.942C878.991 518.942 879.336 519.034 879.64 519.21L1036.75 609.92C1037.05 610.096 1037.3 610.348 1037.48 610.652C1037.65 610.955 1037.75 611.3 1037.75 611.65C1037.75 612 1037.65 612.345 1037.48 612.648C1037.3 612.952 1037.05 613.204 1036.75 613.38L880.65 704.1C880.344 704.269 879.999 704.355 879.65 704.35ZM726.53 611.64L879.65 700L1031.76 611.6L878.64 523.2L726.53 611.64Z" fill="#262424"/>
<path d="M879.67 579.37L879.5 727.05L698.04 622.29L698.22 474.6L879.67 579.37Z" fill="#916DD5"/>
<path d="M718.89 531.3L780.45 566.83V625.02L718.82 589.44L718.89 531.3Z" fill="white"/>
<path d="M780.45 627C780.099 626.999 779.754 626.906 779.45 626.73L717.82 591.15C717.515 590.974 717.262 590.72 717.086 590.414C716.91 590.109 716.819 589.762 716.82 589.41L716.9 531.27C716.9 530.919 716.993 530.574 717.169 530.271C717.344 529.967 717.597 529.715 717.901 529.539C718.205 529.364 718.55 529.272 718.901 529.272C719.251 529.272 719.596 529.365 719.9 529.54L781.46 565.07C781.764 565.245 782.016 565.498 782.192 565.801C782.367 566.105 782.46 566.449 782.46 566.8V625C782.46 625.263 782.408 625.524 782.307 625.768C782.206 626.011 782.057 626.232 781.871 626.418C781.684 626.604 781.462 626.751 781.218 626.851C780.975 626.951 780.714 627.001 780.45 627V627ZM720.82 588.27L778.45 621.54V568L720.89 534.77L720.82 588.27Z" fill="#262424"/>
<path d="M858.9 612.13L858.84 670.29L797.27 634.74V576.55L858.9 612.13Z" fill="white"/>
<path d="M858.84 672.29C858.489 672.289 858.144 672.196 857.84 672.02L796.27 636.47C795.966 636.295 795.714 636.042 795.538 635.739C795.363 635.435 795.27 635.091 795.27 634.74V576.55C795.27 576.199 795.363 575.854 795.539 575.551C795.714 575.247 795.967 574.995 796.271 574.819C796.575 574.644 796.92 574.552 797.271 574.552C797.621 574.552 797.966 574.645 798.27 574.82L859.9 610.4C860.204 610.575 860.456 610.828 860.632 611.131C860.807 611.435 860.9 611.779 860.9 612.13L860.84 670.29C860.84 670.82 860.629 671.329 860.254 671.704C859.879 672.079 859.37 672.29 858.84 672.29ZM799.27 633.59L856.85 666.83L856.91 613.29L799.27 580V633.57V633.59Z" fill="#262424"/>
<path d="M879.32 579.37L879.5 727.05L1060.13 622.29L1059.95 474.6L879.32 579.37Z" fill="white"/>
<path d="M879.5 729.05C878.97 729.05 878.461 728.839 878.086 728.464C877.711 728.089 877.5 727.58 877.5 727.05L877.33 579.36C877.33 579.009 877.423 578.665 877.598 578.361C877.774 578.057 878.026 577.805 878.33 577.63L1059 472.87C1059.3 472.695 1059.65 472.602 1060 472.602C1060.35 472.602 1060.7 472.694 1061 472.87C1061.3 473.045 1061.56 473.297 1061.73 473.601C1061.91 473.904 1062 474.249 1062 474.6L1062.17 622.29C1062.17 622.641 1062.08 622.985 1061.9 623.289C1061.73 623.592 1061.47 623.845 1061.17 624.02L880.5 728.78C880.196 728.956 879.851 729.049 879.5 729.05ZM881.33 580.51L881.5 723.58L1058.13 621.14L1058 478.07L881.33 580.51Z" fill="#262424"/>
<path d="M1040.1 531.3L978.55 566.83V625.02L1040.18 589.44L1040.1 531.3Z" fill="#F0E3FF"/>
<path d="M900.09 612.13L900.15 670.29L961.73 634.74V576.55L900.09 612.13Z" fill="#F0E3FF"/>
<path d="M1059.95 474.6L879.67 579.37L698.22 474.6L878.5 369.84L1059.95 474.6Z" fill="white"/>
<path d="M879.67 581.37C879.319 581.369 878.974 581.276 878.67 581.1L697.22 476.34C696.917 476.164 696.665 475.912 696.49 475.608C696.316 475.305 696.224 474.96 696.224 474.61C696.224 474.26 696.316 473.915 696.49 473.612C696.665 473.308 696.917 473.056 697.22 472.88L877.5 368.11C877.804 367.934 878.149 367.842 878.5 367.842C878.851 367.842 879.196 367.934 879.5 368.11L1061 472.87C1061.3 473.046 1061.55 473.298 1061.73 473.602C1061.9 473.905 1062 474.25 1062 474.6C1062 474.95 1061.9 475.295 1061.73 475.598C1061.55 475.902 1061.3 476.154 1061 476.33L880.68 581.09C880.374 581.271 880.026 581.368 879.67 581.37ZM702.21 474.6L879.67 577.06L1056 474.6L878.5 372.15L702.21 474.6Z" fill="#262424"/>
<path d="M972.68 474.6L879.39 528.81L785.49 474.6L878.78 420.39L972.68 474.6Z" fill="white"/>
<path d="M879.39 530.81C879.039 530.809 878.694 530.716 878.39 530.54L784.49 476.33C784.187 476.154 783.935 475.902 783.76 475.598C783.586 475.295 783.494 474.95 783.494 474.6C783.494 474.25 783.586 473.905 783.76 473.602C783.935 473.298 784.187 473.046 784.49 472.87L877.78 418.66C878.084 418.484 878.429 418.392 878.78 418.392C879.131 418.392 879.476 418.484 879.78 418.66L973.68 472.87C973.983 473.046 974.235 473.298 974.41 473.602C974.584 473.905 974.677 474.25 974.677 474.6C974.677 474.95 974.584 475.295 974.41 475.598C974.235 475.902 973.983 476.154 973.68 476.33L880.39 530.54C880.086 530.716 879.741 530.809 879.39 530.81ZM789.48 474.6L879.38 526.51L968.68 474.61L878.78 422.7L789.48 474.6Z" fill="#262424"/>
<path d="M879.65 519.46L879.5 564.81L722.38 474.1L722.53 428.75L879.65 519.46Z" fill="white"/>
<path d="M879.5 566.81C879.149 566.809 878.804 566.716 878.5 566.54L721.38 475.84C721.075 475.664 720.822 475.41 720.646 475.104C720.47 474.799 720.379 474.452 720.38 474.1L720.53 428.75C720.53 428.399 720.623 428.054 720.799 427.751C720.974 427.447 721.227 427.195 721.531 427.019C721.835 426.844 722.18 426.752 722.531 426.752C722.881 426.752 723.226 426.845 723.53 427.02L880.64 517.73C880.945 517.906 881.198 518.16 881.374 518.466C881.55 518.771 881.641 519.118 881.64 519.47L881.49 564.82C881.487 565.347 881.277 565.852 880.904 566.224C880.532 566.597 880.027 566.807 879.5 566.81V566.81ZM724.39 473L877.51 561.4L877.65 520.65L724.53 432.25L724.39 473Z" fill="#262424"/>
<path d="M879.35 519.46L879.5 564.81L1036.61 474.1L1036.46 428.75L879.35 519.46Z" fill="white"/>
<path d="M879.5 566.81C878.97 566.81 878.461 566.599 878.086 566.224C877.711 565.849 877.5 565.34 877.5 564.81L877.35 519.46C877.349 519.108 877.44 518.761 877.616 518.456C877.792 518.15 878.045 517.896 878.35 517.72L1035.46 427C1035.76 426.825 1036.11 426.732 1036.46 426.732C1036.81 426.732 1037.16 426.824 1037.46 427C1037.76 427.175 1038.02 427.427 1038.19 427.731C1038.37 428.034 1038.46 428.379 1038.46 428.73L1038.61 474.08C1038.61 474.432 1038.52 474.779 1038.34 475.085C1038.17 475.39 1037.92 475.644 1037.61 475.82L880.5 566.55C880.195 566.723 879.85 566.812 879.5 566.81ZM881.35 520.61L881.49 561.36L1034.61 473L1034.47 432.25L881.35 520.61Z" fill="#262424"/>
<path d="M1035.75 428.74L879.65 519.46L722.53 428.75L878.63 338.03L1035.75 428.74Z" fill="white"/>
<path d="M879.65 521.46C879.299 521.459 878.954 521.366 878.65 521.19L721.54 430.48C721.237 430.304 720.985 430.052 720.81 429.748C720.636 429.445 720.544 429.1 720.544 428.75C720.544 428.4 720.636 428.055 720.81 427.752C720.985 427.448 721.237 427.196 721.54 427.02L877.64 336.3C877.944 336.124 878.289 336.032 878.64 336.032C878.991 336.032 879.336 336.124 879.64 336.3L1036.75 427C1037.05 427.176 1037.3 427.428 1037.48 427.732C1037.65 428.035 1037.75 428.38 1037.75 428.73C1037.75 429.08 1037.65 429.425 1037.48 429.728C1037.3 430.032 1037.05 430.284 1036.75 430.46L880.65 521.18C880.347 521.36 880.002 521.456 879.65 521.46ZM726.53 428.74L879.65 517.14L1031.76 428.74L878.64 340.34L726.53 428.74Z" fill="#262424"/>
<path d="M879.67 396.47L879.5 544.16L698.04 439.4L698.22 291.71L879.67 396.47Z" fill="#916DD5"/>
<path d="M718.89 348.4L780.45 383.93V442.12L718.82 406.55L718.89 348.4Z" fill="white"/>
<path d="M780.45 444.12C780.099 444.119 779.754 444.026 779.45 443.85L717.82 408.27C717.516 408.095 717.264 407.842 717.088 407.539C716.913 407.235 716.82 406.891 716.82 406.54L716.9 348.4C716.9 348.049 716.993 347.704 717.169 347.401C717.344 347.097 717.597 346.845 717.901 346.669C718.205 346.494 718.55 346.402 718.901 346.402C719.251 346.402 719.596 346.495 719.9 346.67L781.46 382.2C781.764 382.375 782.016 382.628 782.192 382.931C782.367 383.235 782.46 383.579 782.46 383.93V442.12C782.46 442.383 782.408 442.644 782.307 442.888C782.206 443.131 782.057 443.352 781.871 443.538C781.684 443.724 781.462 443.871 781.218 443.971C780.975 444.071 780.713 444.121 780.45 444.12ZM720.82 405.39L778.45 438.66V385.09L720.89 351.86L720.82 405.39Z" fill="#262424"/>
<path d="M858.9 429.23L858.84 487.39L797.27 451.85V393.65L858.9 429.23Z" fill="white"/>
<path d="M858.84 489.39C858.489 489.389 858.144 489.296 857.84 489.12L796.27 453.57C795.966 453.395 795.714 453.143 795.538 452.839C795.363 452.535 795.27 452.191 795.27 451.84V393.66C795.27 393.309 795.363 392.964 795.539 392.661C795.714 392.357 795.967 392.105 796.271 391.93C796.575 391.754 796.92 391.662 797.271 391.662C797.621 391.662 797.966 391.755 798.27 391.93L859.9 427.5C860.204 427.675 860.456 427.927 860.632 428.231C860.807 428.535 860.9 428.879 860.9 429.23L860.84 487.39C860.84 487.92 860.629 488.429 860.254 488.804C859.879 489.179 859.37 489.39 858.84 489.39ZM799.27 450.69L856.85 483.93L856.91 430.39L799.28 397.12V450.69H799.27Z" fill="#262424"/>
<path d="M879.32 396.47L879.5 544.16L1060.13 439.4L1059.95 291.71L879.32 396.47Z" fill="white"/>
<path d="M879.5 546.16C878.97 546.16 878.461 545.949 878.086 545.574C877.711 545.199 877.5 544.69 877.5 544.16L877.33 396.47C877.33 396.119 877.423 395.775 877.598 395.471C877.774 395.168 878.026 394.915 878.33 394.74L1059 290C1059.3 289.825 1059.65 289.732 1060 289.732C1060.35 289.732 1060.7 289.824 1061 289.999C1061.3 290.175 1061.56 290.427 1061.73 290.731C1061.91 291.034 1062 291.379 1062 291.73L1062.17 439.42C1062.17 439.771 1062.08 440.115 1061.9 440.419C1061.73 440.722 1061.47 440.975 1061.17 441.15L880.5 545.89C880.196 546.066 879.851 546.159 879.5 546.16ZM881.33 397.62L881.5 540.69L1058.13 438.25L1058 295.18L881.33 397.62Z" fill="#262424"/>
<path d="M1040.1 348.4L978.55 383.93V442.12L1040.18 406.55L1040.1 348.4Z" fill="#F0E3FF"/>
<path d="M900.09 429.23L900.15 487.39L961.73 451.85V393.65L900.09 429.23Z" fill="#F0E3FF"/>
<path d="M1059.95 291.7L879.67 396.47L698.22 291.71L878.5 186.94L1059.95 291.7Z" fill="white"/>
<path d="M879.67 398.47C879.319 398.469 878.974 398.376 878.67 398.2L697.22 293.44C696.917 293.264 696.665 293.012 696.49 292.708C696.316 292.405 696.224 292.06 696.224 291.71C696.224 291.36 696.316 291.015 696.49 290.712C696.665 290.408 696.917 290.156 697.22 289.98L877.5 185.21C877.804 185.034 878.149 184.942 878.5 184.942C878.851 184.942 879.196 185.034 879.5 185.21L1061 290C1061.3 290.176 1061.55 290.428 1061.73 290.732C1061.9 291.035 1062 291.38 1062 291.73C1062 292.08 1061.9 292.425 1061.73 292.728C1061.55 293.032 1061.3 293.284 1061 293.46L880.68 398.2C880.373 398.378 880.025 398.471 879.67 398.47ZM702.21 291.7L879.67 394.16L1056 291.71L878.5 189.25L702.21 291.7Z" fill="#262424"/>
<path d="M972.68 291.7L879.39 345.92L785.49 291.71L878.78 237.49L972.68 291.7Z" fill="white"/>
<path d="M879.39 347.92C879.039 347.919 878.694 347.826 878.39 347.65L784.49 293.44C784.187 293.264 783.935 293.012 783.76 292.708C783.586 292.405 783.494 292.06 783.494 291.71C783.494 291.36 783.586 291.015 783.76 290.712C783.935 290.408 784.187 290.156 784.49 289.98L877.78 235.76C878.084 235.584 878.429 235.492 878.78 235.492C879.131 235.492 879.476 235.584 879.78 235.76L973.68 289.97C973.983 290.146 974.235 290.398 974.41 290.702C974.584 291.005 974.677 291.35 974.677 291.7C974.677 292.05 974.584 292.395 974.41 292.698C974.235 293.002 973.983 293.254 973.68 293.43L880.39 347.65C880.086 347.826 879.741 347.919 879.39 347.92ZM789.48 291.7L879.38 343.61L968.68 291.71L878.78 239.8L789.48 291.7Z" fill="#262424"/>
<path d="M879.65 336.56L879.5 381.92L722.38 291.21L722.53 245.85L879.65 336.56Z" fill="white"/>
<path d="M879.5 383.92C879.149 383.919 878.804 383.826 878.5 383.65L721.38 292.94C721.075 292.764 720.822 292.51 720.646 292.205C720.47 291.899 720.379 291.552 720.38 291.2L720.53 245.85C720.53 245.499 720.623 245.154 720.799 244.851C720.974 244.547 721.227 244.295 721.531 244.12C721.835 243.944 722.18 243.852 722.531 243.852C722.881 243.852 723.226 243.945 723.53 244.12L880.64 334.83C880.945 335.006 881.198 335.26 881.374 335.566C881.55 335.871 881.641 336.218 881.64 336.57L881.49 381.92C881.49 382.449 881.281 382.956 880.908 383.331C880.535 383.706 880.029 383.917 879.5 383.92ZM724.39 290.06L877.51 378.46L877.65 337.72L724.53 249.32L724.39 290.06Z" fill="#262424"/>
<path d="M879.35 336.56L879.5 381.92L1036.61 291.21L1036.46 245.85L879.35 336.56Z" fill="white"/>
<path d="M879.5 383.92C878.97 383.92 878.461 383.709 878.086 383.334C877.711 382.959 877.5 382.45 877.5 381.92L877.35 336.57C877.349 336.218 877.44 335.871 877.616 335.566C877.792 335.26 878.045 335.006 878.35 334.83L1035.46 244.12C1035.76 243.945 1036.11 243.852 1036.46 243.852C1036.81 243.852 1037.16 243.944 1037.46 244.12C1037.76 244.295 1038.02 244.547 1038.19 244.851C1038.37 245.154 1038.46 245.499 1038.46 245.85L1038.61 291.2C1038.61 291.552 1038.52 291.899 1038.34 292.205C1038.17 292.51 1037.92 292.764 1037.61 292.94L880.5 383.65C880.196 383.826 879.851 383.919 879.5 383.92ZM881.35 337.72L881.49 378.46L1034.61 290.06L1034.47 249.32L881.35 337.72Z" fill="#262424"/>
<path d="M1035.75 245.85L879.65 336.56L722.53 245.85L878.63 155.14L1035.75 245.85Z" fill="white"/>
<path d="M879.65 338.56C879.299 338.559 878.954 338.466 878.65 338.29L721.54 247.59C721.237 247.414 720.985 247.162 720.81 246.858C720.636 246.555 720.544 246.21 720.544 245.86C720.544 245.51 720.636 245.165 720.81 244.862C720.985 244.558 721.237 244.306 721.54 244.13L877.64 153.41C877.944 153.234 878.289 153.142 878.64 153.142C878.991 153.142 879.336 153.234 879.64 153.41L1036.75 244.12C1037.05 244.296 1037.3 244.548 1037.48 244.852C1037.65 245.155 1037.75 245.5 1037.75 245.85C1037.75 246.2 1037.65 246.545 1037.48 246.848C1037.3 247.152 1037.05 247.404 1036.75 247.58L880.65 338.3C880.345 338.473 880 338.562 879.65 338.56V338.56ZM726.53 245.85L879.65 334.25L1031.76 245.85L878.64 157.45L726.53 245.85Z" fill="#262424"/>
<path d="M879.67 213.57L879.5 361.26L698.04 256.5L698.22 108.81L879.67 213.57Z" fill="#916DD5"/>
<path d="M718.89 165.51L780.45 201.04V259.23L718.82 223.65L718.89 165.51Z" fill="white"/>
<path d="M780.45 261.23C780.099 261.229 779.754 261.136 779.45 260.96L717.82 225.38C717.516 225.205 717.264 224.953 717.088 224.649C716.913 224.345 716.82 224.001 716.82 223.65L716.9 165.51C716.9 165.159 716.993 164.814 717.169 164.511C717.344 164.207 717.597 163.955 717.901 163.78C718.205 163.604 718.55 163.512 718.901 163.512C719.251 163.512 719.596 163.605 719.9 163.78L781.46 199.31C781.764 199.485 782.016 199.738 782.192 200.041C782.367 200.345 782.46 200.689 782.46 201.04V259.23C782.46 259.494 782.408 259.754 782.307 259.998C782.206 260.241 782.057 260.462 781.871 260.648C781.684 260.834 781.462 260.981 781.218 261.081C780.975 261.181 780.713 261.231 780.45 261.23V261.23ZM720.82 222.5L778.45 255.77V202.19L720.89 169L720.82 222.5Z" fill="#262424"/>
<path d="M858.9 246.34L858.84 304.5L797.27 268.95V210.76L858.9 246.34Z" fill="white"/>
<path d="M858.84 306.5C858.489 306.499 858.144 306.406 857.84 306.23L796.27 270.68C795.966 270.505 795.714 270.252 795.538 269.949C795.363 269.645 795.27 269.301 795.27 268.95V210.76C795.27 210.409 795.363 210.064 795.539 209.761C795.714 209.457 795.967 209.205 796.271 209.03C796.575 208.854 796.92 208.762 797.271 208.762C797.621 208.762 797.966 208.855 798.27 209.03L859.9 244.61C860.204 244.785 860.456 245.038 860.632 245.341C860.807 245.645 860.9 245.989 860.9 246.34L860.84 304.5C860.84 305.03 860.629 305.539 860.254 305.914C859.879 306.289 859.37 306.5 858.84 306.5ZM799.27 267.8L856.84 301L856.9 247.46L799.27 214.19V267.76V267.8Z" fill="#262424"/>
<path d="M879.32 213.57L879.5 361.26L1060.13 256.5L1059.95 108.81L879.32 213.57Z" fill="white"/>
<path d="M879.5 363.26C878.97 363.26 878.461 363.049 878.086 362.674C877.711 362.299 877.5 361.79 877.5 361.26L877.33 213.57C877.33 213.219 877.423 212.875 877.598 212.571C877.774 212.268 878.026 212.015 878.33 211.84L1059 107.08C1059.3 106.905 1059.65 106.812 1060 106.812C1060.35 106.812 1060.7 106.904 1061 107.079C1061.3 107.255 1061.56 107.507 1061.73 107.811C1061.91 108.114 1062 108.459 1062 108.81L1062.17 256.5C1062.17 256.851 1062.08 257.195 1061.9 257.499C1061.73 257.803 1061.47 258.055 1061.17 258.23L880.5 363C880.195 363.173 879.85 363.262 879.5 363.26V363.26ZM881.33 214.72L881.5 357.79L1058.13 255.35L1058 112.28L881.33 214.72Z" fill="#262424"/>
<path d="M1040.1 165.51L978.55 201.04V259.23L1040.18 223.65L1040.1 165.51Z" fill="#F0E3FF"/>
<path d="M900.09 246.34L900.15 304.5L961.73 268.95V210.76L900.09 246.34Z" fill="#F0E3FF"/>
<path d="M1059.95 108.81L879.67 213.57L698.22 108.81L878.5 4.04004L1059.95 108.81Z" fill="white"/>
<path d="M879.67 215.57C879.319 215.569 878.974 215.476 878.67 215.3L697.22 110.55C696.917 110.374 696.665 110.122 696.49 109.818C696.316 109.515 696.224 109.17 696.224 108.82C696.224 108.47 696.316 108.125 696.49 107.822C696.665 107.518 696.917 107.266 697.22 107.09L877.5 2.32002C877.804 2.14449 878.149 2.05206 878.5 2.05206C878.851 2.05206 879.196 2.14449 879.5 2.32002L1061 107.07C1061.3 107.246 1061.55 107.498 1061.73 107.802C1061.9 108.105 1062 108.45 1062 108.8C1062 109.15 1061.9 109.495 1061.73 109.798C1061.55 110.102 1061.3 110.354 1061 110.53L880.68 215.3C880.373 215.478 880.025 215.571 879.67 215.57ZM702.21 108.81L879.67 211.27L1056 108.81L878.5 6.36002L702.21 108.81Z" fill="#262424"/>
<path d="M972.68 108.81L879.39 163.02L785.49 108.81L878.78 54.6L972.68 108.81Z" fill="#F0E3FF"/>
</svg>
