<svg id="Layer_1" data-name="Layer 1" xmlns="http://www.w3.org/2000/svg" viewBox="0 0 622.02 197.89"><defs><style>.cls-1{fill:#f8f8f8;}</style></defs><path class="cls-1" d="M166.21,250.93A69.38,69.38,0,0,1,194.89,257a78.12,78.12,0,0,1,40,40.15,73.82,73.82,0,0,1,.15,58.14,78,78,0,0,1-16,23.72,74.26,74.26,0,0,1-23.72,16.13A73.46,73.46,0,0,1,165.89,401a76.17,76.17,0,0,1-29.14-5.58,73,73,0,0,1-23.88-15.66,74.05,74.05,0,0,1-22-53.49,73,73,0,0,1,21.71-52.56,79.06,79.06,0,0,1,24-16.12A81.18,81.18,0,0,1,166.21,250.93Zm-.32,30.7a44.46,44.46,0,0,0-17.2,3.41,43.66,43.66,0,0,0-14.27,9.46,46,46,0,0,0-9.61,14.11,44.38,44.38,0,0,0,0,34.88,47.39,47.39,0,0,0,9.61,14.42,44.31,44.31,0,0,0,14.27,9.77,43.35,43.35,0,0,0,34.41,0,44.31,44.31,0,0,0,14.27-9.77A47.57,47.57,0,0,0,207,343.49a42.89,42.89,0,0,0,3.56-17.21q-.91-18.28-13-30.85t-31.31-13.8Z" transform="translate(-90.85 -203.12)"/><path class="cls-1" d="M382,203.18q5.26-.3,9.92,4.19t4.65,9.76V326a69,69,0,0,1-6.2,28.84,78,78,0,0,1-16.74,23.87,83,83,0,0,1-24,16.28A68.65,68.65,0,0,1,321.24,401a71.87,71.87,0,0,1-28.83-5.89A76.09,76.09,0,0,1,268.53,379a78.19,78.19,0,0,1-16.28-23.87,71.15,71.15,0,0,1-6-29.15q0-16.74,5.42-29.46a78.52,78.52,0,0,1,16.28-23.87V273a80.5,80.5,0,0,1,25.27-16.44,75,75,0,0,1,28.37-5.58,92.58,92.58,0,0,1,20.62,2.79,70.39,70.39,0,0,1,23.72,10.86v-45.9a14.47,14.47,0,0,1,1.24-5.89,20.59,20.59,0,0,1,3.26-5.12,13.61,13.61,0,0,1,4.81-3.56,10.79,10.79,0,0,1,5.58-.93ZM365.89,326a40.42,40.42,0,0,0-3.56-16.44,48.77,48.77,0,0,0-9.77-14.41A47.74,47.74,0,0,0,338.3,285a40.29,40.29,0,0,0-17.06-3.72A42.89,42.89,0,0,0,304,284.88a44.94,44.94,0,0,0-23.87,23.88,43.63,43.63,0,0,0,0,34.57,46,46,0,0,0,9.61,14.11A45.47,45.47,0,0,0,304,367.05a42.73,42.73,0,0,0,17.21,3.57,41.72,41.72,0,0,0,17.06-3.57,48.14,48.14,0,0,0,14.26-9.61,44.89,44.89,0,0,0,9.77-14.11A42.53,42.53,0,0,0,365.89,326Z" transform="translate(-90.85 -203.12)"/><path class="cls-1" d="M480.62,250.93A69.4,69.4,0,0,1,509.31,257a78.12,78.12,0,0,1,40,40.15,73.82,73.82,0,0,1,.15,58.14,78,78,0,0,1-16,23.72,74.37,74.37,0,0,1-23.72,16.13A73.5,73.5,0,0,1,480.31,401a76.17,76.17,0,0,1-29.14-5.58,73,73,0,0,1-23.88-15.66,74.05,74.05,0,0,1-22-53.49,73.17,73.17,0,0,1,5.74-29,72.36,72.36,0,0,1,16-23.57,79.06,79.06,0,0,1,24-16.12A81.17,81.17,0,0,1,480.62,250.93Zm-.31,30.7A44.51,44.51,0,0,0,463.1,285a43.61,43.61,0,0,0-14.26,9.46,46,46,0,0,0-9.61,14.11,44.38,44.38,0,0,0,0,34.88,47.39,47.39,0,0,0,9.61,14.42,44.27,44.27,0,0,0,14.26,9.77,43.38,43.38,0,0,0,34.42,0,44.42,44.42,0,0,0,14.27-9.77,47.57,47.57,0,0,0,9.61-14.42A42.89,42.89,0,0,0,525,326.28q-.93-18.28-13-30.85t-31.32-13.8Z" transform="translate(-90.85 -203.12)"/><path class="cls-1" d="M638.14,250.93A69.32,69.32,0,0,1,666.82,257a78,78,0,0,1,40,40.15,71,71,0,0,1,6,29.15,71.73,71.73,0,0,1-5.89,29A78,78,0,0,1,691,379a74.37,74.37,0,0,1-23.72,16.13A73.5,73.5,0,0,1,637.83,401a76.26,76.26,0,0,1-29.15-5.58,73,73,0,0,1-23.87-15.66,73.95,73.95,0,0,1-22-53.49,73.17,73.17,0,0,1,5.74-29,72.36,72.36,0,0,1,16-23.57,79.06,79.06,0,0,1,24-16.12A81.12,81.12,0,0,1,638.14,250.93Zm-.31,30.7A44.51,44.51,0,0,0,620.62,285a43.61,43.61,0,0,0-14.26,9.46,46,46,0,0,0-9.61,14.11,44.38,44.38,0,0,0,0,34.88,47.39,47.39,0,0,0,9.61,14.42,44.27,44.27,0,0,0,14.26,9.77,43.38,43.38,0,0,0,34.42,0,44.42,44.42,0,0,0,14.27-9.77,47.57,47.57,0,0,0,9.61-14.42,42.89,42.89,0,0,0,3.56-17.21q-.93-18.28-13-30.85t-31.32-13.8Z" transform="translate(-90.85 -203.12)"/></svg>